<svg width="31" height="30" viewBox="0 0 31 30" fill="none" xmlns="http://www.w3.org/2000/svg">
<path d="M24.7 14.3H5.69995C2.69995 14.3 0.199951 16.8 0.199951 19.8V24.2001C0.199951 27.2001 2.69995 29.7001 5.69995 29.7001H24.7C27.7 29.7001 30.2 27.2001 30.2 24.2001V19.8C30.2 16.8 27.8 14.3 24.7 14.3ZM9.69995 17.7001H7.89995V26.5H6.19995V17.7001H4.39995V16.2001H9.59996V17.7001H9.69995ZM14.7 26.5H13.2V25.7001C12.9 26.0001 12.6 26.2001 12.3 26.4001C12 26.6001 11.6999 26.6 11.3999 26.6C10.9999 26.6 10.8 26.5 10.6 26.3C10.4 26.1 10.3 25.7 10.3 25.3V19H11.8V24.8C11.8 25 11.7999 25.1001 11.8999 25.2001C11.9999 25.3001 12.1 25.3 12.2 25.3C12.3 25.3 12.5 25.2 12.6 25.1C12.8 25 12.9 24.9001 13.1 24.7001V18.9001H14.6V26.5H14.7ZM20.2 25C20.2 25.5 20.1 25.9001 19.8 26.2001C19.6 26.5001 19.2 26.6 18.8 26.6C18.5 26.6 18.2 26.5001 18 26.4001C17.8 26.3001 17.5999 26.1001 17.3999 25.9001V26.5H15.8999V16.2001H17.3999V19.5C17.5999 19.3 17.8 19.1 18.1 19C18.3 18.9 18.6 18.8 18.8 18.8C19.3 18.8 19.5999 19 19.8999 19.3C20.1999 19.6 20.3 20.1001 20.3 20.7001V25H20.2ZM25.5 22.9001H22.6V24.3C22.6 24.7 22.6 25 22.7 25.1C22.8 25.3 23 25.3 23.2 25.3C23.5 25.3 23.6 25.2 23.7 25.1C23.8 25 23.8999 24.7001 23.8999 24.2001V24H25.5V24.4001C25.5 25.2001 25.2999 25.8001 24.8999 26.2001C24.4999 26.6001 24 26.8 23.2 26.8C22.5 26.8 22 26.6001 21.6 26.2001C21.2 25.8001 21 25.2 21 24.5V21C21 20.3 21.2 19.8001 21.6 19.4001C22 19.0001 22.6 18.8 23.3 18.8C24 18.8 24.4999 19.0001 24.8999 19.4001C25.2999 19.8001 25.5 20.3 25.5 21.1V22.9001V22.9001Z" fill="#66B2E3"/>
<path d="M23.2999 20.1001C23.0999 20.1001 22.8999 20.2001 22.7999 20.3001C22.6999 20.4001 22.5999 20.7001 22.5999 21.0001V21.8001H23.8998V21.0001C23.8998 20.7001 23.7998 20.5001 23.6998 20.3001C23.6998 20.1001 23.4999 20.1001 23.2999 20.1001Z" fill="#66B2E3"/>
<path d="M17.9999 20.1001C17.8999 20.1001 17.7999 20.1001 17.6999 20.2001C17.5999 20.2001 17.4999 20.3001 17.3999 20.4001V25.1001C17.4999 25.2001 17.5999 25.3001 17.7999 25.4001C17.8999 25.4001 17.9999 25.5001 18.1999 25.5001C18.3999 25.5001 18.4999 25.4001 18.5999 25.3001C18.6999 25.2001 18.6999 25.0001 18.6999 24.8001V20.9001C18.6999 20.6001 18.5999 20.4001 18.4999 20.3001C18.3999 20.1001 18.1999 20.1001 17.9999 20.1001Z" fill="#66B2E3"/>
<path d="M5.8999 0.300049L8.19991 7.20005V11.7001H10.0999V7.00005L12.3999 0.300049H10.3999L9.19991 4.90005H9.09991L7.79991 0.300049H5.8999Z" fill="#66B2E3"/>
<path d="M13.2 3.7C12.7 4.1 12.5 4.6 12.5 5.2V9.5C12.5 10.2 12.7 10.8 13.2 11.2C13.6 11.6 14.2 11.8 15 11.8C15.8 11.8 16.4 11.6 16.8 11.2C17.2 10.8 17.5 10.2 17.5 9.5V5.2C17.5 4.6 17.3 4 16.8 3.6C16.3 3.2 15.8 3 15.1 3C14.3 3.1 13.7 3.3 13.2 3.7ZM15.7 5.2V9.8C15.7 10 15.6 10.2 15.5 10.3C15.4 10.4 15.2 10.5 14.9 10.5C14.7 10.5 14.5 10.4 14.4 10.3C14.3 10.2 14.2 10 14.2 9.8V5.2C14.2 5 14.3 4.9 14.4 4.8C14.5 4.7 14.7 4.6 14.9 4.6C15.1 4.6 15.3 4.7 15.4 4.8C15.7 4.8 15.7 5 15.7 5.2Z" fill="#66B2E3"/>
<path d="M23.6999 11.7001V3.30005H21.9999V9.60005C21.7999 9.80005 21.6999 9.90005 21.4999 10.1C21.2999 10.2 21.0999 10.3 20.9999 10.3C20.7999 10.3 20.6999 10.3001 20.6999 10.2001C20.5999 10.1001 20.5999 10 20.5999 9.80005V3.40005H18.8999V10.4C18.8999 10.9 18.9999 11.3 19.1999 11.5C19.3999 11.7 19.6999 11.9 20.0999 11.9C20.3999 11.9 20.7999 11.8 21.0999 11.6C21.3999 11.4 21.7999 11.2 22.0999 10.8V11.7001H23.6999V11.7001Z" fill="#66B2E3"/>
</svg>
