<svg width="30" height="18" viewBox="0 0 30 18" fill="none" xmlns="http://www.w3.org/2000/svg">
<path fill-rule="evenodd" clip-rule="evenodd" d="M29 17.8H25.2999C24.0999 17.8 23.9 16.9 21.7 14.8C19.8 12.9 19 12.8 18.6 12.8C18.2 12.8 17.8999 13.1 17.8999 13.8V16.6C17.8999 17.4 17.3999 17.8 15.3999 17.8C12.1999 17.8 8.49996 15.8 5.79996 12.1C1.69996 6.60005 0.699951 2.50005 0.699951 1.60005C0.699951 1.10005 1.09995 0.800049 1.49995 0.800049H4.79996C5.69996 0.800049 5.99996 1.10005 6.29996 2.00005C7.79996 6.50005 10.5 10.4001 11.7 10.4001C12.1 10.4001 12.2 10 12.2 9.10005V4.60005C12.2 2.40005 11 2.20005 11 1.40005C11 1.10005 11.3 0.800049 11.7 0.800049H17C17.7 0.800049 17.7999 1.10005 17.7999 1.90005V8.00005C17.7999 8.70005 17.8999 9.00005 18.2999 9.00005C18.6999 9.00005 19 8.80005 19.7 8.00005C21.9 5.60005 23.7 1.80005 23.7 1.80005C23.9 1.30005 24.2 1.00005 25 1.00005H28.2999C28.9999 1.00005 29.2 1.40005 29.1 2.00005C28.7 3.80005 24.8999 9.20005 24.8999 9.20005C24.4999 9.80005 24.3999 10.1 24.8999 10.6C25.2999 11.1 26.4 12 27.1 13C28.8 14.8 29.8999 16.3 29.8999 17.1C29.7999 17.6 29.4 17.8 29 17.8Z" fill="#66B2E3"/>
</svg>
