<svg xmlns="http://www.w3.org/2000/svg" viewBox="0 0 71.48 41.69"><defs><style>.cls-1{fill:#fff;}.cls-2{fill:#bd0034;}.cls-3{fill:#1a237b;}</style></defs><title>Ресурс 1</title><g id="Слой_2" data-name="Слой 2"><g id="Слой_1-2" data-name="Слой 1"><rect class="cls-1" width="71.48" height="41.69"/><polygon class="cls-2" points="69.85 0 42.92 15.07 47.86 15.07 71.48 1.85 71.48 0 69.85 0"/><polygon class="cls-2" points="46.75 27.45 71.48 41.3 71.48 38.53 51.69 27.45 46.75 27.45"/><polygon class="cls-2" points="0 3.17 21.16 15.07 26.1 15.07 0 0.41 0 3.17"/><polygon class="cls-2" points="24.98 27.45 0 41.45 0 41.69 4.51 41.69 29.93 27.45 24.98 27.45"/><polygon class="cls-3" points="41.56 0 41.56 14.02 66.59 0 41.56 0"/><polygon class="cls-3" points="5.58 0 30.51 14.02 30.51 0 5.58 0"/><polygon class="cls-3" points="54.5 15.07 71.48 15.07 71.48 5.51 54.5 15.07"/><polygon class="cls-3" points="54.5 27.45 71.48 36.92 71.48 27.45 54.5 27.45"/><polygon class="cls-3" points="7 41.69 30.51 41.69 30.51 28.52 7 41.69"/><polygon class="cls-3" points="41.56 41.69 65.15 41.69 41.56 28.52 41.56 41.69"/><polygon class="cls-3" points="0 27.45 0 37.34 17.57 27.45 0 27.45"/><polygon class="cls-3" points="0 15.07 17.57 15.07 0 5.17 0 15.07"/><polygon class="cls-2" points="32.72 0 32.72 17.55 0 17.55 0 24.98 32.72 24.98 32.72 41.69 39.35 41.69 39.35 24.98 71.48 24.98 71.48 17.55 39.35 17.55 39.35 0 32.72 0"/></g></g></svg>