<svg width="31" height="30" viewBox="0 0 31 30" fill="none" xmlns="http://www.w3.org/2000/svg">
<path d="M24.5 0H6.10004C2.90004 0 0.300049 2.6 0.300049 5.8V11.9V24.2C0.300049 27.4 2.90004 30 6.10004 30H24.5C27.7 30 30.3 27.4 30.3 24.2V11.9V5.8C30.3 2.6 27.7 0 24.5 0ZM26.2 3.5H26.9V4.2V8.6H21.8V3.5H26.2ZM11.1 11.9C12.1 10.6 13.6 9.7 15.4 9.7C17.2 9.7 18.7 10.6 19.7 11.9C20.3 12.8 20.7 13.8 20.7 15C20.7 17.9 18.3 20.3 15.4 20.3C12.5 20.3 10.1 17.9 10.1 15C10.1 13.9 10.4 12.8 11.1 11.9ZM27.4 24.2C27.4 25.8 26.1 27.1 24.5 27.1H6.10004C4.50004 27.1 3.20004 25.8 3.20004 24.2V11.9H7.70004C7.30004 12.9 7.10004 13.9 7.10004 15C7.10004 19.5 10.8 23.2 15.3 23.2C19.8 23.2 23.5 19.5 23.5 15C23.5 13.9 23.3 12.9 22.9 11.9H27.4V24.2Z" fill="#66B2E3"/>
</svg>
