<svg width="252" height="359" viewBox="0 0 252 359" fill="none" xmlns="http://www.w3.org/2000/svg">
<g clip-path="url(#clip0)">
<path d="M183.9 125.5C183.9 157.8 157.8 183.9 125.5 183.9C93.2001 183.9 67.1001 157.8 67.1001 125.5C67.1001 93.2 93.2001 67.1 125.5 67.1C157.8 67.1 183.9 93.3 183.9 125.5Z" fill="white"/>
<path d="M125.5 276.9C82.5 276.9 36.8 291.1 36.8 317.5C36.8 343.9 82.5 358.1 125.5 358.1C168.5 358.1 214.2 343.9 214.2 317.5C214.2 291.1 168.6 276.9 125.5 276.9Z" fill="#FFC700"/>
<path d="M125.5 0C56.3 0 0 56.3 0 125.5C0 168.5 20.4 214.7 60.8 262.8C90.5 298.3 119.7 321 121 322C122.4 323 124 323.6 125.6 323.6C127.2 323.6 128.8 323.1 130.2 322C131.4 321 160.7 298.3 190.4 262.8C230.7 214.6 251.2 168.4 251.2 125.5C251.1 56.3 194.8 0 125.5 0ZM172.6 125.5C172.6 151.5 151.5 172.6 125.5 172.6C99.5 172.6 78.4 151.5 78.4 125.5C78.4 99.5 99.5 78.4 125.5 78.4C151.5 78.5 172.6 99.5 172.6 125.5Z" fill="#66B1E3"/>
<path d="M125.5 339.3C87.9 339.3 48.1999 328.4 38.7999 308.1C37.3999 311 36.7 314.2 36.7 317.5C36.7 343.9 82.3999 358.1 125.4 358.1C168.4 358.1 214.1 343.9 214.1 317.5C214.1 314.2 213.4 311.1 212 308.1C202.8 328.5 163.1 339.3 125.5 339.3Z" fill="#E88F00"/>
<path d="M125.5 0C120.7 0 116 0.3 111.4 0.8C174 7.8 222.8 61.1 222.8 125.5C222.8 168.5 202.4 214.7 162 262.8C142.2 286.4 122.6 304.4 111.4 314.1C117 318.9 120.5 321.7 120.9 322C122.3 323 123.9 323.6 125.5 323.6C127.1 323.6 128.7 323.1 130.1 322C131.3 321 160.6 298.3 190.3 262.8C230.6 214.6 251.1 168.4 251.1 125.5C251.1 56.3 194.8 0 125.5 0Z" fill="#2655AA"/>
</g>
<defs>
<clipPath id="clip0">
<rect width="251.1" height="358.1" fill="white"/>
</clipPath>
</defs>
</svg>
