<svg xmlns="http://www.w3.org/2000/svg" xmlns:xlink="http://www.w3.org/1999/xlink" viewBox="0 0 71.48 41.69"><defs><style>.cls-1{fill:none;}.cls-2{fill:#b5002a;}.cls-3{fill:#f4c327;}.cls-4{clip-path:url(#clip-path);}.cls-5{fill:#9d0025;}.cls-6{fill:#c1b020;}.cls-7{fill:#fff;}.cls-8{fill:#3d8e6d;}.cls-9{fill:#3057bb;}.cls-10{fill:#cacaca;}.cls-11{fill:#c0b420;}.cls-12{fill:#ca3e4b;}.cls-13{fill:#de6ba8;}.cls-14{fill:#f7d591;}.cls-15{fill:#2f2aec;}.cls-16{clip-path:url(#clip-path-2);}</style><clipPath id="clip-path"><rect class="cls-1" width="71.48" height="41.69"/></clipPath><clipPath id="clip-path-2"><rect class="cls-1" x="19.77" y="22.21" width="1.89" height="2.22"/></clipPath></defs><title>Ресурс 1</title><g id="Слой_2" data-name="Слой 2"><g id="Слой_1-2" data-name="Слой 1"><rect class="cls-2" width="71.48" height="41.69"/><rect class="cls-3" y="10.42" width="71.48" height="20.85"/><g class="cls-4"><path class="cls-5" d="M13.89,18.46h-.06a.49.49,0,0,1-.1-.08l-.05,0,0-.07s-.07-.1,0-.17a.22.22,0,0,1,.12-.13l.12-.05.1,0,.11,0,.05,0,.07,0,.09,0h.46a.33.33,0,0,1,.1,0l.11,0,.17.06a1.52,1.52,0,0,1,.2.06.43.43,0,0,1,.1.09.32.32,0,0,1,0,.09.08.08,0,0,1,0,.09l0,.07-.05.08-.06.05s0,0-.09,0a6.26,6.26,0,0,0-.66-.07,4.66,4.66,0,0,0-.63.07"/><path d="M15.18,18.47h0a4.76,4.76,0,0,0-.66-.06,5.4,5.4,0,0,0-.63.06.69.69,0,0,1-.17-.09l-.11-.11s-.06-.11,0-.19A.22.22,0,0,1,13.7,18l.13-.05.1,0,.1,0,.1,0,.12,0,.2,0h.36l.11,0,.18.06a.83.83,0,0,1,.19.06.33.33,0,0,1,.11.09l0,.1h0v.1l-.1.16-.07.05a.14.14,0,0,1-.09,0m-.66-.09a4.48,4.48,0,0,1,.6.06h.06a.1.1,0,0,0,.08,0l.11-.13,0-.15,0-.08a.22.22,0,0,0-.1-.09l-.13,0-.23-.08-.11,0h-.28l-.26,0h-.11v0l-.12,0-.11,0-.09,0-.13,0a.26.26,0,0,0-.11.12.2.2,0,0,0,0,.16l0,.07.15.12c.06,0,.45-.06.69-.06"/><path class="cls-6" d="M14.41,17.92c0-.12.05-.21.12-.21s.1.09.1.21-.05.2-.1.2-.12-.09-.12-.2"/><path d="M14.53,18.14c-.08,0-.13-.1-.13-.22s.24-.24.24,0-.05.22-.11.22m0-.41c-.06,0-.11.08-.11.19s.21.21.21,0-.05-.19-.1-.19"/><path class="cls-6" d="M14.48,17.92c0-.11,0-.19,0-.19s.05.08.05.19,0,.19-.05.19,0-.09,0-.19"/><path d="M14.53,18.12s-.07-.11-.07-.2,0-.2.07-.2.06.1.06.2,0,.2-.06.2"/><path class="cls-6" d="M14.45,17.7a.07.07,0,0,1,.08-.07.07.07,0,0,1,0,.14.07.07,0,0,1-.08-.07"/><polygon class="cls-6" points="14.58 17.68 14.58 17.73 14.46 17.73 14.46 17.68 14.5 17.68 14.5 17.56 14.45 17.56 14.45 17.52 14.5 17.52 14.5 17.47 14.55 17.47 14.55 17.52 14.6 17.52 14.6 17.56 14.55 17.56 14.55 17.68 14.58 17.68"/><polygon class="cls-6" points="14.63 17.68 14.63 17.73 14.42 17.73 14.42 17.68 14.5 17.68 14.5 17.56 14.45 17.56 14.45 17.52 14.5 17.52 14.5 17.47 14.55 17.47 14.55 17.52 14.6 17.52 14.6 17.56 14.55 17.56 14.55 17.68 14.63 17.68"/><path d="M14.53,17.78a.08.08,0,0,1-.09-.08.08.08,0,0,1,.06-.08l0,.08c0,.07.13.07.13,0l0-.08a.09.09,0,0,1,.06.08.07.07,0,0,1-.08.08"/><path class="cls-6" d="M14.53,18.45h-.4v-.1l0-.1,0-.13c-.11-.14-.21-.24-.24-.22s0,0,0,0,.29.07.45.3l0,.07h.33a.43.43,0,0,0,0-.07c.15-.23.34-.36.44-.3a.06.06,0,0,1,.05,0s-.14.08-.25.22l0,.13,0,.1v.1Z"/><path d="M14.94,18.46h-.81l-.06-.34c-.11-.14-.19-.21-.22-.21h0a.81.81,0,0,1,.23.22l.05.33h.78l.05-.32a.8.8,0,0,1,.22-.23l0,0c-.07,0-.13.07-.24.22Zm-.58-.23c-.17-.26-.33-.39-.43-.39l0,0,0-.05a.61.61,0,0,1,.4.33l.25,0Zm.36-.07c.15-.22.31-.34.4-.34l0,0h0c-.09,0-.26.13-.38.32Z"/><path d="M14.82,18.21c.13-.23.3-.37.39-.32l0,0c-.07-.05-.24.1-.37.3m-.57,0c-.15-.19-.33-.34-.39-.29v0c.08,0,.26.09.4.31"/><path class="cls-6" d="M13.93,18.63a.25.25,0,0,0,0-.09,2.27,2.27,0,0,1,.64-.08,2.25,2.25,0,0,1,.63.08l0,.07,0,.07a2,2,0,0,0-.55-.07,2.12,2.12,0,0,0-.58.07l0-.05"/><path d="M14,18.7h0l0-.05a.44.44,0,0,0,0-.09,2.08,2.08,0,0,1,.65-.09,2.38,2.38,0,0,1,.64.08l-.05.09h0l0-.09a3.33,3.33,0,0,0-.62-.06,2.81,2.81,0,0,0-.63.07.19.19,0,0,1,0,.08v.05a2.07,2.07,0,0,1,.58-.07,2.33,2.33,0,0,1,.4,0h-.4a1.88,1.88,0,0,0-.57.08Z"/><path class="cls-6" d="M14.53,18.83a2.66,2.66,0,0,0,.5,0c.05,0,.09,0,.08-.07s0,0,0,0a1.86,1.86,0,0,0-.54-.07,2,2,0,0,0-.56.07l0,0s0,.06.09.07a2.69,2.69,0,0,0,.51,0"/><path d="M14.53,18.84a2.92,2.92,0,0,1-.52-.05c-.06,0-.09,0-.08-.08a1.9,1.9,0,0,1,1.15,0c0,.08,0,.1-.05.12a2.57,2.57,0,0,1-.5.05m0-.21a2.12,2.12,0,0,0-.56.06s0,.07,0,.08a4.18,4.18,0,0,0,1,0c.05,0,.08,0,.08-.06a1.64,1.64,0,0,0-.57-.08"/><path class="cls-6" d="M15.17,18.45l-.05,0a.16.16,0,0,1-.1,0c-.06,0-.08-.09-.08-.09s-.07.06-.12.05a.14.14,0,0,1-.09-.05.14.14,0,0,1-.11,0s-.09-.07-.09-.07-.06.07-.11.07a.11.11,0,0,1-.09,0,.12.12,0,0,1-.1.06.17.17,0,0,1-.12,0,.18.18,0,0,1-.08.08.17.17,0,0,1-.1,0l0,0h0v0a2.68,2.68,0,0,1,.63-.07,2.52,2.52,0,0,1,.62.07Z"/><path d="M15.15,18.51a2.17,2.17,0,0,0-.62-.08,2.65,2.65,0,0,0-.62.07l0-.09h0v0l.08,0h0a.31.31,0,0,0,.08-.07.16.16,0,0,0,.11,0c.12,0,.09-.05.1-.05s0,0,.09,0,.1-.06.1-.06.07.06.11.06a.23.23,0,0,0,.1,0s0,0,.1,0a.25.25,0,0,0,.11,0s0,.07.09.07h.1v0H15a.15.15,0,0,1-.11-.09.15.15,0,0,1-.11.06.16.16,0,0,1-.1-.06.12.12,0,0,1-.09,0,.15.15,0,0,1-.11-.07s0,.07-.1.08-.08,0-.1,0,0,0-.08.06a.23.23,0,0,1-.13-.05.12.12,0,0,1,0,.06h.47a2.63,2.63,0,0,1,.61.07h0Z"/><path class="cls-6" d="M14.53,18.23h0a0,0,0,0,0,0,0,.09.09,0,0,0,.09.09.1.1,0,0,0,.09-.06s0,0,0,0v0s0,.07.09.07a.09.09,0,0,0,.09-.08v0l0,0,0,0s0,0,0,0a.09.09,0,0,0,.09.09.13.13,0,0,0,.07,0l0,0v0s0,.06,0,.06,0,0,.08,0a.28.28,0,0,0,.06-.06v0a.28.28,0,0,1-.08.09l-.07,0a.1.1,0,0,1-.06,0h-.06a.16.16,0,0,1-.13-.07.1.1,0,0,1-.09,0,.12.12,0,0,1-.1,0,.17.17,0,0,1-.1,0,.11.11,0,0,1-.1-.06.14.14,0,0,1-.11.06.12.12,0,0,1-.09,0,.15.15,0,0,1-.11,0,.13.13,0,0,1-.1,0,.12.12,0,0,1-.12.07h-.06a.1.1,0,0,1-.06,0l-.07,0a.36.36,0,0,1-.09-.09v0a.28.28,0,0,0,.06.06c.05,0,.08,0,.08,0s0,0,0-.06v0l0,0a.08.08,0,0,0,.07,0,.09.09,0,0,0,.09-.09.06.06,0,0,0,0,0l0,0,0,0v0a.09.09,0,0,0,.1.08.09.09,0,0,0,.09-.07v0s0,0,0,0a.1.1,0,0,0,.08.06.09.09,0,0,0,.09-.09v0Z"/><path d="M15.17,18.49l0,0,0,0v0l.07,0a.21.21,0,0,0,.07-.09c-.09.07-.12.07-.13.07h0l-.05-.07a.1.1,0,0,1-.17,0s.07.06.1.06l0,0,.08,0,0,.09.07,0,.06-.06a.13.13,0,0,1-.06.14Zm-1.28,0-.09,0a.36.36,0,0,1-.09-.09v0h0l.08.09,0,0-.07,0,0,0,.12.06,0-.06h0a.08.08,0,0,1,0,.05h0c.11,0,.16,0,.17-.05s.16,0,.21,0,.16,0,.2,0a.14.14,0,0,0,.2,0,.15.15,0,0,0,.2,0,.15.15,0,0,0,.13.07h0c-.08,0-.13,0-.14-.07s-.15.06-.2,0-.15.05-.2,0-.14.08-.2,0-.15.07-.21,0,0,.07-.1.07l-.12,0m.11-.08-.07,0H14a.08.08,0,0,0,.08-.07l0-.08c.05.17.18.14.19.06h0c0,.1-.21.08-.21,0,0,.08,0,.12-.11.12"/><path class="cls-6" d="M14.53,18.46a2.27,2.27,0,0,0-.64.08l0,0s0,0,0,0a2.3,2.3,0,0,1,.65-.08,2.27,2.27,0,0,1,.64.08l0,0,0,0a2.25,2.25,0,0,0-.63-.08"/><path d="M15.17,18.55h0a2.73,2.73,0,0,0-1.27,0l.1-.06a3.32,3.32,0,0,1,1.18,0h0Zm0,0a2,2,0,0,0-.64-.09,2.27,2.27,0,0,0-.48,0,1.4,1.4,0,0,1,.48-.06,2.27,2.27,0,0,1,.64.08Z"/><path class="cls-7" d="M14.28,18.55s0,0,0,0a0,0,0,1,1,0,.06s0,0,0,0"/><path class="cls-5" d="M14.53,18.56h-.08s0,0,0,0,0,0,0,0h.16s0,0,0,0a0,0,0,0,1,0,0Z"/><path class="cls-8" d="M14.12,18.59h0a.05.05,0,0,1,0,0,0,0,0,0,1,0,0h.11s0,0,0,0,0,0,0,0Z"/><polygon class="cls-5" points="13.89 18.63 13.92 18.59 13.97 18.6 13.94 18.65 13.89 18.63"/><path class="cls-7" d="M14.69,18.55s0,0,0,0,0,0,0,0,0,0,0,0,0,0,0,0"/><path class="cls-8" d="M14.92,18.59H15s0,0,0,0,0,0,0,0h-.12s0,0,0,0a0,0,0,0,0,0,0Z"/><polygon class="cls-5" points="15.15 18.64 15.13 18.59 15.07 18.59 15.1 18.64 15.15 18.64"/><path class="cls-5" d="M14.53,18.79a2,2,0,0,1-.53-.06,2.65,2.65,0,0,1,.53-.05,2.62,2.62,0,0,1,.52.05,2,2,0,0,1-.52.06"/><path d="M14.53,18.8h0a1.88,1.88,0,0,1-.53-.06,2.08,2.08,0,0,1,1.05,0,1.29,1.29,0,0,1-.52.08m0-.12a2.67,2.67,0,0,0-.53.06,3.59,3.59,0,0,0,.53,0,1.86,1.86,0,0,0,.52-.06c-.15,0-.33,0-.52,0"/><path class="cls-6" d="M15.16,18.35s0,0,0,0a0,0,0,0,0,0,0,0,0,0,0,0,0,0s0,0,0,0"/><path class="cls-6" d="M14.76,18.27s0,0,0,0,0,0,0,0,0,0,0,0,0,0,0,0"/><path class="cls-6" d="M14.3,18.27a0,0,0,0,1,0,0s0,0,0,0,0,0,0,0,0,0,0,0"/><path class="cls-6" d="M13.89,18.35s0,0,0,0a0,0,0,0,1,0,0s0,0,0,0,0,0,0,0"/><polygon class="cls-6" points="14.53 18.04 14.46 18.08 14.51 18.2 14.53 18.21 14.54 18.2 14.59 18.08 14.53 18.04"/><polygon class="cls-6" points="14.37 18.21 14.4 18.26 14.51 18.23 14.53 18.21 14.51 18.2 14.4 18.16 14.37 18.21"/><polygon class="cls-6" points="14.68 18.21 14.64 18.26 14.54 18.23 14.53 18.21 14.54 18.2 14.64 18.16 14.68 18.21"/><polygon class="cls-6" points="14.06 18.09 14.01 18.14 14.08 18.24 14.1 18.25 14.11 18.23 14.14 18.12 14.06 18.09"/><polygon class="cls-6" points="13.94 18.28 13.99 18.32 14.09 18.27 14.1 18.25 14.09 18.23 13.96 18.22 13.94 18.28"/><polygon class="cls-6" points="14.25 18.22 14.23 18.27 14.11 18.26 14.1 18.25 14.11 18.23 14.21 18.18 14.25 18.22"/><polygon class="cls-6" points="13.84 18.3 13.83 18.35 13.71 18.36 13.69 18.35 13.69 18.34 13.78 18.26 13.84 18.3"/><path class="cls-6" d="M14.06,18.25a0,0,0,0,1,.08,0,0,0,0,0,1-.08,0,0,0,0,0,1,0,0"/><polygon class="cls-6" points="14.99 18.09 15.05 18.14 14.97 18.24 14.95 18.25 14.94 18.23 14.92 18.12 14.99 18.09"/><polygon class="cls-6" points="15.1 18.28 15.07 18.32 14.97 18.27 14.95 18.25 14.97 18.23 15.08 18.22 15.1 18.28"/><polygon class="cls-6" points="14.81 18.22 14.82 18.27 14.94 18.26 14.95 18.25 14.95 18.23 14.84 18.18 14.81 18.22"/><polygon class="cls-6" points="15.2 18.3 15.21 18.35 15.33 18.36 15.34 18.35 15.34 18.34 15.25 18.26 15.2 18.3"/><path class="cls-6" d="M14.48,18.21a0,0,0,0,1,0,0,0,0,0,1,1,0,.08,0,0,0,0,1,0,0"/><path class="cls-6" d="M14.91,18.25a0,0,0,0,1,0,0s.05,0,.05,0,0,0-.05,0a0,0,0,0,1,0,0"/><path class="cls-6" d="M13.68,18.36l0-.06-.06,0a.08.08,0,0,1,0,0s0,0,0,0v0s0,0,0,0a.21.21,0,0,1,0,.06v0"/><path class="cls-6" d="M13.68,18.34a0,0,0,0,1,0,0,.06.06,0,0,1,0,0,0,0,0,0,1-.05,0s0,0,0,0"/><path class="cls-6" d="M15.36,18.36l.05-.06.06,0a.08.08,0,0,0-.05,0s0,0,0,0v0a0,0,0,0,0,0,0,.21.21,0,0,0,0,.06l0,0"/><path class="cls-6" d="M15.36,18.34a0,0,0,0,0,0,0s0,0,0,0a0,0,0,0,0,0,0s0,0,0,0"/><rect class="cls-6" x="13.61" y="18.82" width="1.84" height="0.49"/><path d="M15.47,19.32H13.61l0-.5,1.86,0Zm0-.5H13.61l0,.47h1.81Z"/><path class="cls-6" d="M13.8,19.62h1.45a.11.11,0,0,1-.08-.11.14.14,0,0,1,.09-.11H13.8a.11.11,0,0,1,.08.1.11.11,0,0,1-.08.11"/><path d="M15.25,19.64h0v0H13.86l1.33,0a.13.13,0,0,1,0-.09.12.12,0,0,1,.07-.1s0,.07,0,.1a.11.11,0,0,0,.07.1s0,0,0,0h0m-1.41,0s0-.07,0-.11a.09.09,0,0,0-.06-.08h0l.51,0-.47,0s.05,0,.05.08a.11.11,0,0,1-.06.11"/><path class="cls-6" d="M13.84,19.62h1.38s.08,0,.08.06a.07.07,0,0,1-.08.07H13.84a.08.08,0,0,1-.09-.07s0-.06.09-.06"/><path d="M15.22,19.76H13.84c-.06,0-.11,0-.11-.08s0-.08.11-.08h1.38a.08.08,0,1,1,0,.16m-1.38-.13v.1h1.38a.06.06,0,0,0,.06-.05Z"/><path class="cls-6" d="M13.84,19.3h1.38s.08,0,.08.06,0,.05-.08.05H13.84c-.05,0-.09,0-.09-.05s0-.06.09-.06"/><path d="M15.22,19.43H13.84c-.06,0-.11,0-.11-.07s0-.07.11-.07h1.38s.1,0,.1.07-.05.07-.1.07m-1.38-.11,1.38.08a.09.09,0,0,0,.07,0Z"/><path class="cls-9" d="M15.81,27.44a.63.63,0,0,1-.32-.07.77.77,0,0,0-.64,0,.63.63,0,0,1-.32.07.74.74,0,0,1-.33-.07.79.79,0,0,0-.32-.07.71.71,0,0,0-.31.07.7.7,0,0,1-.33.07v.2a.84.84,0,0,0,.33-.07.71.71,0,0,1,.31-.07.79.79,0,0,1,.32.07.74.74,0,0,0,.33.07.63.63,0,0,0,.32-.07.77.77,0,0,1,.64,0,.63.63,0,0,0,.32.07Z"/><path d="M15.83,27.66h0a.56.56,0,0,1-.33-.08.81.81,0,0,0-.63,0,.82.82,0,0,1-.67,0,.83.83,0,0,0-.62,0,.7.7,0,0,1-.33.08l0-.22a1,1,0,0,0,.34-.08.81.81,0,0,1,.65,0,.77.77,0,0,0,.63,0,.84.84,0,0,1,.66,0,.76.76,0,0,0,.32.07v.23Zm-1.94-.34a.61.61,0,0,0-.32.07.84.84,0,0,1-.33.07v.18a1,1,0,0,0,.31-.08.82.82,0,0,1,.65,0,.77.77,0,0,0,.63,0,.8.8,0,0,1,.66,0,.7.7,0,0,0,.3.07v-.19a.52.52,0,0,1-.31-.05.77.77,0,0,0-.63,0,.82.82,0,0,1-.67,0,.7.7,0,0,0-.3-.06"/><path class="cls-10" d="M15.81,27.64a.76.76,0,0,1-.32-.07.77.77,0,0,0-.64,0,.76.76,0,0,1-.32.07.74.74,0,0,1-.33-.07.79.79,0,0,0-.32-.07.71.71,0,0,0-.31.07.84.84,0,0,1-.33.07v.2a.84.84,0,0,0,.33-.07.59.59,0,0,1,.31-.07.66.66,0,0,1,.32.07.74.74,0,0,0,.33.07.76.76,0,0,0,.32-.07.77.77,0,0,1,.64,0,.76.76,0,0,0,.32.07Z"/><path d="M15.83,27.86h0a.64.64,0,0,1-.33-.08.77.77,0,0,0-.63,0,.82.82,0,0,1-.67,0,.79.79,0,0,0-.62,0,.7.7,0,0,1-.33.08l0-.22a1,1,0,0,0,.34-.08.82.82,0,0,1,.65,0,.77.77,0,0,0,.63,0,.8.8,0,0,1,.66,0,.76.76,0,0,0,.32.07v.23Zm-1.94-.34a.73.73,0,0,0-.32.06.7.7,0,0,1-.33.08v.18a.8.8,0,0,0,.31-.09.86.86,0,0,1,.65,0,.77.77,0,0,0,.63,0,.84.84,0,0,1,.66,0,.58.58,0,0,0,.3.08v-.19a.46.46,0,0,1-.31-.06.81.81,0,0,0-.63,0,.82.82,0,0,1-.67,0,.7.7,0,0,0-.3-.06"/><path class="cls-9" d="M15.81,27.84a.76.76,0,0,1-.32-.07.77.77,0,0,0-.64,0,.76.76,0,0,1-.32.07.74.74,0,0,1-.33-.07.66.66,0,0,0-.32-.07.59.59,0,0,0-.31.07.84.84,0,0,1-.33.07V28a.84.84,0,0,0,.33-.07.71.71,0,0,1,.31-.07.79.79,0,0,1,.32.07.74.74,0,0,0,.33.07.63.63,0,0,0,.32-.07.77.77,0,0,1,.64,0,.63.63,0,0,0,.32.07Z"/><path d="M15.83,28.06h0a.77.77,0,0,1-.33-.07.77.77,0,0,0-.63,0,.82.82,0,0,1-.67,0,.83.83,0,0,0-.62,0,.7.7,0,0,1-.33.08l0-.22a.81.81,0,0,0,.34-.09.86.86,0,0,1,.65,0,.77.77,0,0,0,.63,0,.84.84,0,0,1,.66,0,.63.63,0,0,0,.32.08v.23Zm-1.94-.34a.73.73,0,0,0-.32.06.7.7,0,0,1-.33.08V28a1.41,1.41,0,0,0,.31-.08.82.82,0,0,1,.65,0,.73.73,0,0,0,.63,0,.8.8,0,0,1,.66,0,.7.7,0,0,0,.3.06v-.18a.46.46,0,0,1-.31-.06.77.77,0,0,0-.63,0,.82.82,0,0,1-.67,0,.7.7,0,0,0-.3-.06"/><path class="cls-10" d="M15.81,28.24a.57.57,0,0,1-.31-.07.84.84,0,0,0-.33-.07.76.76,0,0,0-.32.07.76.76,0,0,1-.32.07.62.62,0,0,1-.33-.08,1,1,0,0,0-.32-.06.71.71,0,0,0-.31.07.84.84,0,0,1-.33.07V28a.84.84,0,0,0,.33-.07.71.71,0,0,1,.31-.07.79.79,0,0,1,.32.07.74.74,0,0,0,.33.07.63.63,0,0,0,.32-.07.76.76,0,0,1,.32-.07.84.84,0,0,1,.33.07.57.57,0,0,0,.31.07Z"/><path d="M15.83,28.26h0a.77.77,0,0,1-.33-.07.77.77,0,0,0-.63,0,.82.82,0,0,1-.67,0,.83.83,0,0,0-.62,0,.7.7,0,0,1-.33.08l0-.21a1.28,1.28,0,0,0,.34-.09.82.82,0,0,1,.65,0,.73.73,0,0,0,.63,0,.76.76,0,0,1,.66,0,.76.76,0,0,0,.32.06v.24Zm-1.94-.35a.76.76,0,0,0-.32.07.7.7,0,0,1-.33.08v.18a.8.8,0,0,0,.31-.09.86.86,0,0,1,.65,0,.7.7,0,0,0,.63,0,.89.89,0,0,1,.66,0,.7.7,0,0,0,.3.08V28a.52.52,0,0,1-.31-.05.77.77,0,0,0-.63,0,.82.82,0,0,1-.67,0,.7.7,0,0,0-.3-.07"/><path class="cls-9" d="M15.81,28.44a.68.68,0,0,1-.31-.07.84.84,0,0,0-.33-.07.76.76,0,0,0-.32.07.76.76,0,0,1-.32.07.62.62,0,0,1-.33-.08,1,1,0,0,0-.32-.06.9.9,0,0,0-.31.06.7.7,0,0,1-.33.08v-.19a.84.84,0,0,0,.33-.08.71.71,0,0,1,.31-.07,1,1,0,0,1,.32.06.62.62,0,0,0,.33.08.76.76,0,0,0,.32-.07.76.76,0,0,1,.32-.07.84.84,0,0,1,.33.07.57.57,0,0,0,.31.07Z"/><path d="M15.83,28.46h0a.64.64,0,0,1-.33-.08.86.86,0,0,0-.63,0,.79.79,0,0,1-.67,0,.83.83,0,0,0-.62,0,.7.7,0,0,1-.33.08l0-.21a1,1,0,0,0,.34-.1.91.91,0,0,1,.65,0,.7.7,0,0,0,.63,0,.94.94,0,0,1,.66,0,.63.63,0,0,0,.32.08v.23Zm-1.94-.34a.73.73,0,0,0-.32.06.7.7,0,0,1-.33.08v.18a.8.8,0,0,0,.31-.09.82.82,0,0,1,.65,0,.77.77,0,0,0,.63,0,.76.76,0,0,1,.66,0,.88.88,0,0,0,.3.07v-.19a.46.46,0,0,1-.31-.06.86.86,0,0,0-.63,0,.79.79,0,0,1-.67,0,.7.7,0,0,0-.3-.06"/><path class="cls-6" d="M13.8,26.62a.11.11,0,0,1,0,.05.22.22,0,0,1-.23.22h1.9a.23.23,0,0,1-.24-.22.43.43,0,0,0,0-.05H13.8"/><path d="M15.48,26.91h-1.9a.25.25,0,0,0,.21-.24h0a.25.25,0,0,1-.24.24l1.76,0a.24.24,0,0,1-.12-.21l-1,0,1,0c0,.18.13.27.26.27s0,0,0,0a0,0,0,0,1,0,0"/><path class="cls-6" d="M13.84,26.5h1.38s.08,0,.08.06a.07.07,0,0,1-.08.07H13.84a.08.08,0,0,1-.09-.07s0-.06.09-.06"/><path d="M15.22,26.64H13.84c-.06,0-.11,0-.11-.08s0-.07.11-.07h1.38s.1,0,.1.07a.09.09,0,0,1-.1.08m-1.38-.13v.1h1.38a.06.06,0,0,0,.06-.05Z"/><rect class="cls-6" x="13.58" y="26.89" width="1.9" height="0.48"/><path d="M15.49,27.39H13.58v-.5h1.91Zm0-.5-1.88,0,0,.47,1.86,0Z"/><path class="cls-5" d="M13.44,24.79c-.2.11-.32.22-.3.27s.06.09.15.15.22.26.15.34a.49.49,0,0,0,.19-.38.5.5,0,0,0-.19-.38"/><path d="M13.45,25.56v0a.17.17,0,0,0,0-.07.41.41,0,0,0-.16-.24c-.1-.06-.15-.1-.17-.15s.2-.24.3-.3a.46.46,0,0,1,.22.4.51.51,0,0,1-.19.39m0-.76c-.18.12-.27.22-.26.26s.05.08.13.13a.39.39,0,0,1,.19.26v0a.44.44,0,0,0,.13-.32.47.47,0,0,0-.19-.37"/><rect class="cls-10" x="13.85" y="19.83" width="1.35" height="6.6"/><path d="M15,26.41l0-6.58h0Zm-.16,0,0-6.58h0Z"/><path d="M15.22,26.43H13.85l0-6.6,1.37,0Zm0-6.6H13.85l0,6.58,1.31,0Z"/><path class="cls-5" d="M16.57,22.29a4.31,4.31,0,0,0-1.36-.23,3.83,3.83,0,0,0-.65.06c-.8.13-1.42.45-1.37.72v0s-.3-.68-.3-.71c-.06-.29.63-.65,1.52-.79a4.62,4.62,0,0,1,.79-.07,3.94,3.94,0,0,1,1.36.19Z"/><path d="M13.19,22.87h0c0-.11-.3-.68-.31-.7a.23.23,0,0,1,.06-.19,2.49,2.49,0,0,1,1.47-.63,4.73,4.73,0,0,1,2.18.12v.83a5.23,5.23,0,0,0-1.38-.22,3.79,3.79,0,0,0-.64.07,2.34,2.34,0,0,0-1.33.54.19.19,0,0,0,0,.16h0Zm2-1.56a4.75,4.75,0,0,0-.78.06A2.56,2.56,0,0,0,13,22a.27.27,0,0,0,0,.17s.15.36.27.62a.19.19,0,0,1,0-.11,2.37,2.37,0,0,1,1.34-.56,3.83,3.83,0,0,1,.65-.06,4.28,4.28,0,0,1,1.37.24l0-.8a4.68,4.68,0,0,0-1.35-.17Z"/><path class="cls-5" d="M13.85,23.12c-.38,0-.63-.13-.66-.28s.1-.27.33-.39l.33,0Z"/><path d="M13.87,23.14h0c-.4,0-.65-.13-.67-.29s.09-.27.33-.41l.34,0,0,.66Zm-.29-.67c-.28.12-.39.25-.37.37s.26.23.63.26v-.63a.76.76,0,0,1-.26,0"/><path class="cls-5" d="M15.2,22.61a1.18,1.18,0,0,1,.5.17h0c0,.09-.17.27-.51.47Z"/><path d="M15.18,23.29v-.68a.94.94,0,0,1,.53.16c.07.15-.29.38-.5.51Zm0-.66,0,.6c.39-.23.5-.37.47-.43a1,1,0,0,0-.49-.17"/><path class="cls-5" d="M13,24.39c0-.1.33-.32.85-.5l.67-.29c.71-.31,1.24-.67,1.18-.81h0a4.51,4.51,0,0,1,.09.69c.07.12-.41.47-1.07.79-.21.1-.66.26-.86.34-.39.12-.76.37-.72.46Z"/><path d="M13.12,25.08h0L13,24.39c0-.13.41-.35.86-.52.23-.08.42-.17.64-.27.76-.33,1.2-.65,1.2-.78h0a0,0,0,0,1,0,0,3.41,3.41,0,0,1,.11.64c-.05.22-.51.53-1.09.81-.2.1-.65.26-.86.34-.37.13-.71.36-.71.44s0,0,0,0h0m2.58-2.25c0,.17-.58.53-1.17.79-.25.11-.44.2-.67.28-.57.21-.86.41-.83.48l.11.61a1.84,1.84,0,0,1,.71-.41c.21-.07.65-.24.86-.34a2.69,2.69,0,0,0,1.07-.73c0-.05,0-.54-.08-.68"/><path class="cls-6" d="M13.76,22c.16,0,.27-.13.22-.25s-.12-.1-.25-.06l-.22.08.2.51.07,0,.07,0Zm-.09-.24h.05a.09.09,0,0,1,.12.06.09.09,0,0,1,0,.13l-.06,0Z"/><path class="cls-6" d="M14.28,21.52l-.07,0h-.07l.12.52.36-.07a899092960351.87,899092960351.87,0,0,0,0-.06l-.22,0Z"/><path class="cls-6" d="M15,22c.06-.18.16-.37.23-.55h-.09a3.12,3.12,0,0,1-.15.39,2.58,2.58,0,0,1-.19-.37h-.18q.15.24.3.51H15"/><path class="cls-6" d="M15.77,21.57a.25.25,0,0,1,0-.07.48.48,0,0,0-.14-.06c-.16,0-.24.06-.25.15s.27.17.26.29-.06.08-.12.07a.12.12,0,0,1-.13-.1h0a.42.42,0,0,1,0,.1.42.42,0,0,0,.16,0c.15,0,.26,0,.28-.14s-.29-.19-.27-.29,0-.08.11-.07a.11.11,0,0,1,.1.08Z"/><path class="cls-5" d="M26.88,18.31s-.06.07-.11.07a.13.13,0,0,1-.09,0,.2.2,0,0,1-.1,0s-.11-.06-.11-.06a.36.36,0,0,1-.09.09.19.19,0,0,1-.1,0,.1.1,0,0,1-.05.05h0l-.05,0-.06-.06,0,0a.64.64,0,0,1,0-.09v0c0-.06.06-.12.18-.15h.17a.46.46,0,0,1,.27-.07.42.42,0,0,1,.25.06.44.44,0,0,1,.25-.06.46.46,0,0,1,.27.07h.17c.12,0,.2.09.18.15v0l0,.09,0,0-.05.06-.05,0h0a.17.17,0,0,1-.06-.05.14.14,0,0,1-.09,0,.36.36,0,0,1-.09-.09s-.07.07-.11.06a.15.15,0,0,1-.09,0,.18.18,0,0,1-.11,0s-.1-.07-.1-.07"/><path d="M27.54,18.47h0l-.06-.05-.07,0a.31.31,0,0,1-.12-.09s-.05.06-.09.06a.21.21,0,0,1-.11-.06.11.11,0,0,1-.09,0s-.11-.08-.12-.08a.2.2,0,0,1-.09.08l-.11,0a.21.21,0,0,1-.08.05h0a.2.2,0,0,1-.12-.06s0,.07-.08.09h0l0,0a.13.13,0,0,0,.08-.07s.07.05.11.05a.15.15,0,0,0,.09-.05h0s0,0,.09,0a.52.52,0,0,0,.11-.07c.07.05.1.06.12.06l.09,0s.05,0,.1.05l.1-.06s.07.07.1.08h.1l.06.06.2-.21c0-.09-.06-.15-.17-.18h-.15a.35.35,0,0,1,.15,0c.12,0,.21.1.2.16l0,.13Zm-1.47-.11h0l0-.1c0-.1.06-.17.19-.2h.1a.84.84,0,0,1,.59,0,.64.64,0,0,1,.51,0,.71.71,0,0,0-.51,0,.6.6,0,0,0-.51,0,.5.5,0,0,0-.18,0c-.12,0-.18.09-.18.13Z"/><path class="cls-6" d="M26.76,18a.15.15,0,0,1,.12-.16c.06,0,.11.07.11.16s0,.16-.11.16a.15.15,0,0,1-.12-.16"/><path d="M26.88,18.13c-.07,0-.13-.07-.13-.17A.13.13,0,1,1,27,18c0,.1-.05.17-.12.17m0-.32c-.06,0-.11.07-.11.15s.21.17.21,0,0-.15-.1-.15"/><path class="cls-6" d="M26.83,18c0-.08,0-.15.05-.15s.06.07.06.15,0,.15-.06.15-.05-.07-.05-.15"/><path class="cls-6" d="M26.29,18.63a.2.2,0,0,0-.05-.09,2.32,2.32,0,0,1,.64-.08,2.2,2.2,0,0,1,.63.08.28.28,0,0,1,0,.07l0,.07a2.07,2.07,0,0,0-.56-.07,2,2,0,0,0-.57.07l0-.05"/><path d="M26.3,18.7v0h0l0-.05a.25.25,0,0,0,0-.09,2,2,0,0,1,.64-.09,2.38,2.38,0,0,1,.64.08l0,.09h0l.05-.09a3.54,3.54,0,0,0-.63-.06,2.88,2.88,0,0,0-.63.07.12.12,0,0,1,.05.08v.05a2,2,0,0,1,.57-.07,2.17,2.17,0,0,1,.4,0h-.4a1.93,1.93,0,0,0-.57.08Z"/><path class="cls-6" d="M26.88,18.83a2.57,2.57,0,0,0,.5,0c.06,0,.09,0,.08-.07s0,0,0,0a1.94,1.94,0,0,0-.55-.07,2.07,2.07,0,0,0-.56.07s0,0,0,0,0,.06.08.07a2.79,2.79,0,0,0,.51,0"/><path d="M26.88,18.84a2.79,2.79,0,0,1-.51-.05c-.06,0-.09,0-.09-.08a1.93,1.93,0,0,1,1.16,0c0,.08,0,.1-.05.12a2.79,2.79,0,0,1-.51.05m0-.21a2,2,0,0,0-.55.06s0,.07.05.08a4.18,4.18,0,0,0,1,0c.05,0,.08,0,.07-.06a1.6,1.6,0,0,0-.57-.08"/><path class="cls-7" d="M27.37,18a0,0,0,0,1,0,0s0,0,0,0a0,0,0,0,1,0,0s0,0,0,0"/><path d="M27.74,18.29h0a0,0,0,0,1,0,0,.28.28,0,0,0,0-.09.22.22,0,0,0-.33-.19.13.13,0,0,1,.11-.06.25.25,0,0,1,.24.25.18.18,0,0,1,0,.1h0"/><path d="M27.32,18.08v0c0-.13-.2-.21-.34-.13.11-.16.36,0,.36.13Z"/><path class="cls-6" d="M27.53,18.45l-.06,0a.16.16,0,0,1-.1,0c-.06,0-.07-.09-.07-.09s-.07.06-.12.05a.11.11,0,0,1-.09-.05s-.07.05-.11,0-.1-.07-.1-.07-.06.07-.11.07a.11.11,0,0,1-.09,0,.14.14,0,0,1-.09.06.15.15,0,0,1-.12,0,.28.28,0,0,1-.08.08.18.18,0,0,1-.11,0s0,0,0,0h0l0,0a2.59,2.59,0,0,1,.62-.07,2.74,2.74,0,0,1,.63.07Z"/><path d="M27.51,18.51a2.25,2.25,0,0,0-.63-.08,2.79,2.79,0,0,0-.62.07l0-.09h0v0l.08,0h0a.19.19,0,0,0,.08-.07s.06,0,.11,0,.1-.05.1-.05,0,0,.09,0a.17.17,0,0,0,.11-.06s.06.06.11.06a.23.23,0,0,0,.1,0s.05,0,.1,0a.32.32,0,0,0,.11,0s0,.07.08.07h.1l0,0H27.4a.15.15,0,0,1-.12-.09s-.05.06-.1.06a.13.13,0,0,0-.2,0,.15.15,0,0,1-.11-.07s-.05.07-.1.08a.13.13,0,0,1-.09,0s0,0-.09.06a.27.27,0,0,1-.13-.05s0,0-.05.06h.47a2.65,2.65,0,0,1,.62.07h0Z"/><path class="cls-7" d="M26.31,18s0,0,0,0,0,0,0,0a0,0,0,1,1-.08,0"/><path d="M26,18.29h0a.19.19,0,0,1,0-.1.25.25,0,0,1,.37-.21c-.19,0-.34.05-.34.21a.28.28,0,0,0,0,.09s0,0,0,0Z"/><path d="M26.43,18.11l0-.07c0-.14.22-.24.37-.15-.17,0-.34,0-.34.15Z"/><path class="cls-6" d="M26.88,18.23h0v0a.09.09,0,0,0,.09.09.1.1,0,0,0,.09-.06s0,0,0,0v0s0,.07.09.07a.09.09,0,0,0,.09-.08v0l0,0v0a.06.06,0,0,0,0,0,.09.09,0,0,0,.09.09.08.08,0,0,0,.07,0l0,0v0s0,.06,0,.06a.09.09,0,0,0,.08,0l.07-.06v0a.28.28,0,0,1-.08.09.19.19,0,0,1-.08,0,.1.1,0,0,1-.06,0H27.4a.14.14,0,0,1-.12-.07.12.12,0,0,1-.09,0,.15.15,0,0,1-.11,0,.14.14,0,0,1-.09,0,.13.13,0,0,0-.22,0,.14.14,0,0,1-.09,0,.15.15,0,0,1-.11,0,.11.11,0,0,1-.09,0,.14.14,0,0,1-.12.07h-.07a.08.08,0,0,1-.05,0,.19.19,0,0,1-.08,0,.36.36,0,0,1-.09-.09v0l.07.06a.09.09,0,0,0,.08,0s0,0,0-.06v0a.12.12,0,0,0,.08,0,.09.09,0,0,0,.09-.09.06.06,0,0,0,0,0l0,0,0,0v0a.09.09,0,0,0,.09.08.1.1,0,0,0,.09-.07v0s0,0,0,0a.09.09,0,0,0,.08.06.09.09,0,0,0,.1-.09v0Z"/><path d="M27.53,18.49l0,0,0,0v0l.06,0a.28.28,0,0,0,.08-.09c-.09.07-.13.07-.14.07h0l-.05-.07a.1.1,0,0,1-.18,0s.07.06.1.06l0,0,.08,0,0,.09.07,0,.07-.06c0,.05,0,.12-.06.14Zm-1.29,0-.08,0c-.05,0-.09-.09-.1-.09v0h0s.05.07.09.09l0,0-.07,0,0,0,.12.06,0-.06h0a.05.05,0,0,1,0,.05h.05c.11,0,.16,0,.17-.05a.16.16,0,0,0,.2,0c.09,0,.16,0,.2,0a.16.16,0,0,0,.2,0c.08.05.16.06.2,0a.15.15,0,0,0,.13.07h0c-.08,0-.12,0-.14-.06s-.15.06-.2,0-.15.05-.2,0-.14.08-.2,0-.15.07-.2,0,0,.07-.11.07l-.12,0m.11-.08-.07,0h.07a.07.07,0,0,0,.08-.07l0-.08c.06.17.18.13.19.06h0c0,.09-.2.08-.2,0a.12.12,0,0,1-.12.12"/><path class="cls-6" d="M26.88,18.46a2.2,2.2,0,0,0-.63.08s0,0,0,0,0,0,0,0a2.35,2.35,0,0,1,.65-.08,2.3,2.3,0,0,1,.65.08l0,0,0,0a2.2,2.2,0,0,0-.63-.08"/><path d="M27.52,18.55h0a2.68,2.68,0,0,0-1.26,0l.1-.06a3.26,3.26,0,0,1,1.17,0h0Zm0,0a2.08,2.08,0,0,0-.65-.09,2.39,2.39,0,0,0-.48,0,1.44,1.44,0,0,1,.48-.06,2.35,2.35,0,0,1,.65.08Z"/><path class="cls-7" d="M26.64,18.55s0,0,0,0a0,0,0,1,1,0,.06s0,0,0,0"/><path class="cls-5" d="M26.88,18.56H26.8s0,0,0,0,0,0,0,0H27s0,0,0,0,0,0,0,0Z"/><path class="cls-8" d="M26.48,18.59h-.05a.05.05,0,0,1,0,0s0,0,0,0h.12s0,0,0,0a0,0,0,0,1,0,0Z"/><polygon class="cls-5" points="26.25 18.63 26.28 18.59 26.33 18.6 26.29 18.65 26.25 18.63"/><path class="cls-7" d="M27.05,18.55s0,0,0,0a0,0,0,1,1,0,.06s0,0,0,0"/><path class="cls-8" d="M27.28,18.59h.06s0,0,0,0,0,0,0,0h-.12a0,0,0,0,0,0,0,0,0,0,0,0,0,0Z"/><polygon class="cls-5" points="27.51 18.64 27.48 18.59 27.42 18.59 27.46 18.64 27.51 18.64"/><path class="cls-5" d="M26.88,18.79a1.9,1.9,0,0,1-.52-.06,2.47,2.47,0,0,1,.52-.05,2.54,2.54,0,0,1,.52.05,2,2,0,0,1-.52.06"/><path d="M26.88,18.8h0a1.88,1.88,0,0,1-.53-.06,2.08,2.08,0,0,1,1,0,1.26,1.26,0,0,1-.52.08m0-.12a2.66,2.66,0,0,0-.52.06,3.33,3.33,0,0,0,.52,0,1.81,1.81,0,0,0,.52-.06c-.15,0-.33,0-.52,0"/><path class="cls-6" d="M27.51,18.35s0,0,0,0a0,0,0,0,0,0,0s0,0,0,0,0,0,0,0"/><path class="cls-6" d="M27.11,18.27s0,0,0,0a0,0,0,0,0,0,0s0,0,0,0,0,0,0,0"/><path class="cls-6" d="M26.65,18.27s0,0,0,0a0,0,0,0,1,0,0s0,0,0,0,0,0,0,0"/><path class="cls-6" d="M26.25,18.35s0,0,0,0,0,0,0,0,0,0,0,0,0,0,0,0"/><polygon class="cls-6" points="26.88 18.04 26.81 18.08 26.86 18.2 26.88 18.21 26.9 18.2 26.95 18.08 26.88 18.04"/><polygon class="cls-6" points="26.72 18.21 26.75 18.26 26.87 18.23 26.88 18.21 26.87 18.2 26.75 18.16 26.72 18.21"/><polygon class="cls-6" points="27.04 18.21 27 18.26 26.89 18.23 26.88 18.21 26.89 18.2 27 18.16 27.04 18.21"/><polygon class="cls-6" points="26.41 18.09 26.36 18.14 26.43 18.24 26.45 18.25 26.47 18.23 26.49 18.12 26.41 18.09"/><polygon class="cls-6" points="26.3 18.28 26.34 18.32 26.45 18.27 26.45 18.25 26.44 18.23 26.32 18.22 26.3 18.28"/><polygon class="cls-6" points="26.61 18.22 26.58 18.27 26.47 18.26 26.46 18.25 26.46 18.23 26.56 18.18 26.61 18.22"/><polygon class="cls-6" points="26.19 18.3 26.18 18.35 26.06 18.36 26.04 18.35 26.05 18.34 26.14 18.26 26.19 18.3"/><path class="cls-6" d="M26.41,18.25a0,0,0,0,1,.05,0s0,0,0,0,0,0,0,0a0,0,0,0,1-.05,0"/><polygon class="cls-6" points="27.34 18.09 27.4 18.14 27.33 18.24 27.31 18.25 27.3 18.23 27.27 18.12 27.34 18.09"/><polygon class="cls-6" points="27.46 18.28 27.42 18.32 27.31 18.27 27.31 18.25 27.32 18.23 27.44 18.22 27.46 18.28"/><polygon class="cls-6" points="27.15 18.22 27.18 18.27 27.29 18.26 27.3 18.25 27.3 18.23 27.2 18.18 27.15 18.22"/><polygon class="cls-6" points="27.55 18.3 27.57 18.35 27.68 18.36 27.7 18.35 27.69 18.34 27.61 18.26 27.55 18.3"/><path class="cls-6" d="M26.84,18.21a0,0,0,0,1,.08,0,0,0,0,0,1-.08,0,0,0,0,0,1,0,0"/><path class="cls-6" d="M27.27,18.25a0,0,0,0,1,0,0,0,0,0,0,1,0,.08,0,0,0,0,1,0,0"/><path class="cls-6" d="M26.8,17.78a.09.09,0,0,1,.08-.08.08.08,0,0,1,.07.08.07.07,0,0,1-.07.07.08.08,0,0,1-.08-.07"/><polygon class="cls-6" points="26.94 17.75 26.94 17.8 26.82 17.8 26.82 17.75 26.85 17.75 26.85 17.64 26.8 17.64 26.8 17.59 26.85 17.59 26.85 17.54 26.91 17.54 26.91 17.59 26.95 17.59 26.95 17.64 26.91 17.64 26.91 17.75 26.94 17.75"/><polygon class="cls-6" points="26.99 17.75 26.99 17.8 26.77 17.8 26.77 17.75 26.85 17.75 26.85 17.64 26.8 17.64 26.8 17.59 26.85 17.59 26.85 17.54 26.91 17.54 26.91 17.59 26.95 17.59 26.95 17.64 26.91 17.64 26.91 17.75 26.99 17.75"/><path d="M26.88,17.86a.09.09,0,0,1-.09-.08.08.08,0,0,1,.07-.08l0,.08c0,.07.13.06.13,0l-.05-.08a.08.08,0,0,1,.06.08.08.08,0,0,1-.08.08"/><path class="cls-6" d="M26,18.36,26,18.3l-.06,0a.08.08,0,0,1,0,0,0,0,0,0,1,0,0v0a0,0,0,0,1,0,0,.21.21,0,0,1,0,.06v0"/><path class="cls-6" d="M26,18.34a0,0,0,0,1,0,0s0,0,0,0,0,0,0,0,0,0,0,0"/><path class="cls-6" d="M27.71,18.36a.31.31,0,0,1,.06-.06l.05,0,0,0s0,0,0,0v0a0,0,0,0,0,0,0,.11.11,0,0,0,0,.06,0,0,0,0,0,0,0"/><path class="cls-6" d="M27.71,18.34a0,0,0,0,0,0,0s0,0,0,0a0,0,0,0,0,0,0,0,0,0,0,0,0,0"/><rect class="cls-6" x="25.96" y="18.82" width="1.85" height="0.49"/><path d="M27.82,19.32H26l0-.5,1.86,0Zm0-.5H26v.47h1.82Z"/><path class="cls-6" d="M27.61,19.62H26.16a.1.1,0,0,0,.08-.11.14.14,0,0,0-.09-.11h1.46a.11.11,0,0,0-.08.1.11.11,0,0,0,.08.11"/><path d="M26.16,19.64v0s0,0,0,0a.11.11,0,0,0,.07-.1.1.1,0,0,0-.07-.09l1.43,0-1.37,0s0,.05,0,.08a.12.12,0,0,1,0,.09h1.33a.11.11,0,0,1,0-.09.14.14,0,0,1,.06-.11c0,.05,0,.08,0,.11a.11.11,0,0,0,.06.1l-1.42,0h0a0,0,0,0,1,0,0"/><path class="cls-6" d="M26.19,19.62h1.39s.08,0,.08.06a.08.08,0,0,1-.08.07H26.19a.08.08,0,0,1-.08-.07s0-.06.08-.06"/><path d="M27.58,19.76H26.19a.08.08,0,1,1,0-.16h1.39a.08.08,0,1,1,0,.16m-1.39-.13v.1h1.39a.06.06,0,0,0,.06-.05Z"/><path class="cls-6" d="M26.19,19.3h1.39s.08,0,.08.06,0,.05-.08.05H26.19s-.08,0-.08-.05,0-.06.08-.06"/><path d="M27.58,19.43H26.19c-.06,0-.1,0-.1-.07s0-.07.1-.07h1.39c.05,0,.1,0,.1.07s-.05.07-.1.07m-1.39-.11,1.39.08s.06,0,.06,0Z"/><path class="cls-9" d="M25.59,27.44a.61.61,0,0,0,.32-.07.81.81,0,0,1,.33-.07.76.76,0,0,1,.32.07.66.66,0,0,0,.32.07.77.77,0,0,0,.33-.07.76.76,0,0,1,.32-.07.71.71,0,0,1,.31.07.7.7,0,0,0,.33.07v.2a.84.84,0,0,1-.33-.07.71.71,0,0,0-.31-.07.76.76,0,0,0-.32.07.77.77,0,0,1-.33.07.66.66,0,0,1-.32-.07.76.76,0,0,0-.32-.07.81.81,0,0,0-.33.07.61.61,0,0,1-.32.07Z"/><path d="M28.19,27.66h0a.67.67,0,0,1-.33-.08.83.83,0,0,0-.62,0,.87.87,0,0,1-.67,0,.81.81,0,0,0-.63,0,.56.56,0,0,1-.33.08v-.22a1,1,0,0,0,.33-.08.8.8,0,0,1,.66,0,.79.79,0,0,0,.64,0,.79.79,0,0,1,.64,0,.79.79,0,0,0,.32.07Zm-2-.34a.66.66,0,0,0-.32.07.77.77,0,0,1-.33.07l0,.18a1,1,0,0,0,.3-.08.8.8,0,0,1,.66,0,.79.79,0,0,0,.64,0,.79.79,0,0,1,.64,0,.74.74,0,0,0,.31.07v-.19a.56.56,0,0,1-.32-.05.79.79,0,0,0-.62,0,.82.82,0,0,1-.67,0,.62.62,0,0,0-.31-.07"/><path class="cls-10" d="M25.59,27.64a.72.72,0,0,0,.32-.07.81.81,0,0,1,.33-.07.76.76,0,0,1,.32.07.79.79,0,0,0,.32.07.77.77,0,0,0,.33-.07.76.76,0,0,1,.32-.07.71.71,0,0,1,.31.07.84.84,0,0,0,.33.07v.2a.84.84,0,0,1-.33-.07.59.59,0,0,0-.31-.07.63.63,0,0,0-.32.07.77.77,0,0,1-.33.07.79.79,0,0,1-.32-.07.76.76,0,0,0-.32-.07.81.81,0,0,0-.33.07.72.72,0,0,1-.32.07Z"/><path d="M28.19,27.86h0a.67.67,0,0,1-.33-.08.79.79,0,0,0-.62,0,.82.82,0,0,1-.67,0,.77.77,0,0,0-.63,0,.64.64,0,0,1-.33.08v-.22a1,1,0,0,0,.33-.08.8.8,0,0,1,.66,0,.79.79,0,0,0,.64,0,.79.79,0,0,1,.64,0,.79.79,0,0,0,.32.07Zm-2-.34a.79.79,0,0,0-.32.06.64.64,0,0,1-.33.08l0,.18a.8.8,0,0,0,.3-.09.84.84,0,0,1,.66,0,.79.79,0,0,0,.64,0,.84.84,0,0,1,.64,0,.62.62,0,0,0,.31.08v-.19a.49.49,0,0,1-.32-.06.83.83,0,0,0-.62,0,.82.82,0,0,1-.67,0,.62.62,0,0,0-.31-.07"/><path class="cls-9" d="M25.59,27.84a.72.72,0,0,0,.32-.07.81.81,0,0,1,.33-.07.76.76,0,0,1,.32.07.79.79,0,0,0,.32.07.77.77,0,0,0,.33-.07.63.63,0,0,1,.32-.07.59.59,0,0,1,.31.07.84.84,0,0,0,.33.07V28a.84.84,0,0,1-.33-.07.71.71,0,0,0-.31-.07.76.76,0,0,0-.32.07.77.77,0,0,1-.33.07.66.66,0,0,1-.32-.07.76.76,0,0,0-.32-.07.81.81,0,0,0-.33.07.61.61,0,0,1-.32.07Z"/><path d="M28.19,28.06h0a.67.67,0,0,1-.33-.08.83.83,0,0,0-.62,0,.82.82,0,0,1-.67,0,.77.77,0,0,0-.63,0,.77.77,0,0,1-.33.07v-.22a.8.8,0,0,0,.33-.09.84.84,0,0,1,.66,0,.79.79,0,0,0,.64,0,.84.84,0,0,1,.64,0,.66.66,0,0,0,.32.08Zm-2-.34a.79.79,0,0,0-.32.06.64.64,0,0,1-.33.08l0,.18a1.47,1.47,0,0,0,.3-.08.8.8,0,0,1,.66,0,.76.76,0,0,0,.64,0,.79.79,0,0,1,.64,0,.71.71,0,0,0,.31.06v-.18a.49.49,0,0,1-.32-.06.79.79,0,0,0-.62,0,.82.82,0,0,1-.67,0,.62.62,0,0,0-.31-.07"/><path class="cls-10" d="M25.59,28.24a.61.61,0,0,0,.32-.07.81.81,0,0,1,.33-.07.76.76,0,0,1,.32.07.79.79,0,0,0,.32.07.64.64,0,0,0,.33-.08,1,1,0,0,1,.32-.06.71.71,0,0,1,.31.07.84.84,0,0,0,.33.07V28a.84.84,0,0,1-.33-.07.71.71,0,0,0-.31-.07.76.76,0,0,0-.32.07.77.77,0,0,1-.33.07.66.66,0,0,1-.32-.07.76.76,0,0,0-.32-.07.81.81,0,0,0-.33.07.61.61,0,0,1-.32.07Z"/><path d="M28.19,28.26h0a.67.67,0,0,1-.33-.08.83.83,0,0,0-.62,0,.82.82,0,0,1-.67,0,.77.77,0,0,0-.63,0,.77.77,0,0,1-.33.07V28a1.33,1.33,0,0,0,.33-.08.8.8,0,0,1,.66,0,.76.76,0,0,0,.64,0,.75.75,0,0,1,.64,0,.79.79,0,0,0,.32.07Zm-2-.35a.66.66,0,0,0-.32.08.77.77,0,0,1-.33.07l0,.18a.8.8,0,0,0,.3-.09.89.89,0,0,1,.66,0,.72.72,0,0,0,.64,0,.84.84,0,0,1,.64,0,.71.71,0,0,0,.31.08v-.18a.56.56,0,0,1-.32-.07.83.83,0,0,0-.62,0,.82.82,0,0,1-.67,0,.62.62,0,0,0-.31-.08"/><path class="cls-9" d="M25.59,28.44a.72.72,0,0,0,.32-.07.81.81,0,0,1,.33-.07.76.76,0,0,1,.32.07.79.79,0,0,0,.32.07.64.64,0,0,0,.33-.08,1,1,0,0,1,.32-.06.9.9,0,0,1,.31.06.7.7,0,0,0,.33.08v-.19a.84.84,0,0,1-.33-.08.71.71,0,0,0-.31-.07,1,1,0,0,0-.32.06.64.64,0,0,1-.33.08.79.79,0,0,1-.32-.07.76.76,0,0,0-.32-.07.81.81,0,0,0-.33.07.61.61,0,0,1-.32.07Z"/><path d="M28.19,28.46h0a.67.67,0,0,1-.33-.08.83.83,0,0,0-.62,0,.79.79,0,0,1-.67,0,.86.86,0,0,0-.63,0,.64.64,0,0,1-.33.08v-.22a.8.8,0,0,0,.33-.09.94.94,0,0,1,.66,0,.72.72,0,0,0,.64,0,.88.88,0,0,1,.64,0,.66.66,0,0,0,.32.08Zm-2-.34a.79.79,0,0,0-.32.06.64.64,0,0,1-.33.08l0,.18a1,1,0,0,0,.3-.08.76.76,0,0,1,.66,0,.79.79,0,0,0,.64,0,.79.79,0,0,1,.64,0,.71.71,0,0,0,.31.08v-.18a.56.56,0,0,1-.32-.07.83.83,0,0,0-.62,0,.79.79,0,0,1-.67,0,.75.75,0,0,0-.31-.06"/><path class="cls-6" d="M27.61,26.62a.43.43,0,0,1,0,.05.22.22,0,0,0,.23.22h-1.9a.23.23,0,0,0,.24-.22.43.43,0,0,1,0-.05h1.45"/><path d="M27.83,26.91h-1.9a.27.27,0,0,0,.22-.24h0a.27.27,0,0,1-.25.24l1.77,0a.23.23,0,0,1-.13-.21l-.95,0,.95,0c0,.17.13.27.25.27s0,0,0,0a0,0,0,0,1,0,0"/><path class="cls-6" d="M26.19,26.5h1.39s.08,0,.08.06a.08.08,0,0,1-.08.07H26.19a.08.08,0,0,1-.08-.07s0-.06.08-.06"/><path d="M27.58,26.64H26.19c-.06,0-.1,0-.1-.08s0-.07.1-.07h1.39c.05,0,.1,0,.1.07a.09.09,0,0,1-.1.08m-1.39-.13v.1h1.39a.06.06,0,0,0,.06-.05Z"/><rect class="cls-6" x="25.93" y="26.89" width="1.9" height="0.48"/><path d="M27.84,27.39H25.93l0-.5h1.92Zm0-.5-1.88,0,0,.47,1.86,0Z"/><path class="cls-5" d="M28,24.79c.18.11.31.22.29.27s-.07.09-.15.15-.22.26-.16.34a.5.5,0,0,1-.17-.38.47.47,0,0,1,.19-.38"/><path d="M28,25.56a.53.53,0,0,1-.18-.39.49.49,0,0,1,.2-.4c.12.06.35.21.32.3s-.07.09-.15.14a.41.41,0,0,0-.18.25v.06h0Zm0-.76a.52.52,0,0,0-.17.37.47.47,0,0,0,.12.32s0,0,0,0a.36.36,0,0,1,.18-.25c.08-.06.14-.1.15-.14s-.09-.14-.29-.26"/><rect class="cls-10" x="26.21" y="19.83" width="1.34" height="6.6"/><path d="M27.35,26.4l0-6.58h0Zm-.14,0,0-6.58h0Z"/><path d="M27.57,26.43H26.21l0-6.6,1.37,0Zm0-6.6H26.21l0,6.58,1.31,0Z"/><path class="cls-5" d="M24.84,22.29a4.32,4.32,0,0,1,1.37-.23,3.81,3.81,0,0,1,.64.06c.8.13,1.42.45,1.37.72v0l.31-.71c.06-.29-.63-.65-1.52-.79a4.62,4.62,0,0,0-.79-.07,4,4,0,0,0-1.37.19Z"/><path d="M28.21,22.88h0l0,0h0a.25.25,0,0,0,0-.16,2.31,2.31,0,0,0-1.32-.54,5.05,5.05,0,0,0-.63-.07,4.45,4.45,0,0,0-1.37.24l0-.83a3.67,3.67,0,0,1,1.4-.2,4.67,4.67,0,0,1,.78.06,2.53,2.53,0,0,1,1.48.63.18.18,0,0,1,.05.18s-.25.6-.31.71,0,0,0,0m-2-.83a3.73,3.73,0,0,1,.64.05,2.23,2.23,0,0,1,1.33.57.22.22,0,0,1,.05.11l.28-.63a.3.3,0,0,0-.05-.17A2.67,2.67,0,0,0,27,21.37a4.72,4.72,0,0,0-2.15.12v.8a3.56,3.56,0,0,1,1.36-.24"/><path class="cls-5" d="M27.56,23.12c.38,0,.63-.13.66-.28s-.1-.27-.33-.39l-.33,0Z"/><path d="M27.55,23.14v-.67l.29,0c.31.13.43.27.4.4s-.27.27-.67.29Zm.33-.67-.32,0,0,.61c.36,0,.59-.13.62-.26s-.09-.25-.32-.37"/><path class="cls-5" d="M26.21,22.61a1.24,1.24,0,0,0-.5.17h0c0,.09.17.27.51.47Z"/><path d="M26.23,23.29h0c-.23-.13-.58-.37-.52-.5a1,1,0,0,1,.52-.18Zm0-.68a1.35,1.35,0,0,0-.47.18c0,.06.09.21.47.44Z"/><path class="cls-5" d="M28.39,24.39c0-.1-.33-.32-.84-.5l-.67-.29c-.71-.31-1.24-.67-1.17-.81h0a6.38,6.38,0,0,0-.1.69c-.06.12.42.47,1.08.79.21.1.66.26.87.34.37.12.75.37.71.46Z"/><path d="M28.28,25.07h0c0-.09-.34-.31-.71-.44-.21-.08-.65-.24-.87-.34a2.72,2.72,0,0,1-1.08-.75,3.62,3.62,0,0,1,.1-.75,2.51,2.51,0,0,0,1.19.82c.26.11.44.2.67.28.45.17.89.39.85.53l-.12.65v0m-2.59-2.21s0,.34-.05.61.49.5,1.06.77a9.21,9.21,0,0,0,.87.34,2,2,0,0,1,.7.41l.11-.6c0-.08-.26-.28-.83-.49-.23-.08-.42-.17-.65-.27a3,3,0,0,1-1.21-.77"/><path class="cls-6" d="M25.68,22c.05-.19.12-.38.18-.57h-.09a3.31,3.31,0,0,1-.12.42,3.61,3.61,0,0,1-.23-.36l-.09,0h-.09c.13.17.24.33.35.49h.09Z"/><path class="cls-6" d="M26.18,21.44H26V22h.37v-.06h-.22Z"/><path class="cls-6" d="M26.77,21.52l.17,0v0s0,0,0,0l-.5,0s0,0,0,0v0h.17l0,.48h.14Z"/><path class="cls-6" d="M27,22.05h.07l.07,0,.06-.24h0l0,.1.08.18.09,0,.08,0,0-.06c0-.08-.07-.16-.11-.25s.17,0,.18-.1,0-.09-.05-.13a.43.43,0,0,0-.16-.05l-.2,0Zm.25-.45c.06,0,.14,0,.14.09s0,0,0,0-.08.1-.17.07Z"/><path class="cls-6" d="M27.94,22.21a1,1,0,0,1,0,.17l.08,0,.07.05.05-.6,0,0h0l-.53.33,0,0,0,0,.15-.11Zm-.15-.14L28,22l0,.19Z"/><path d="M18.81,16.83a.19.19,0,0,1-.19-.17c0-.19.36-.19.36,0a.17.17,0,0,1-.17.17m0-.34a.18.18,0,0,0-.18.17c0,.18.35.18.35,0a.17.17,0,0,0-.17-.17"/><path class="cls-5" d="M20.66,15.19A3.82,3.82,0,0,1,22,15.4a3,3,0,0,0,.69.18,3.83,3.83,0,0,0,.57,0,2.15,2.15,0,0,1,.88.2,2.43,2.43,0,0,1,.65.41l-.13.11,0,.33-.35.41-.18.15-.42.34h-.22l-.06.19-2.73-.32-2.73.32-.07-.19h-.22l-.42-.34-.18-.15-.35-.41,0-.33-.13-.11a2.6,2.6,0,0,1,.65-.41,2.15,2.15,0,0,1,.88-.2,3.62,3.62,0,0,0,.56,0,2.84,2.84,0,0,0,.7-.18,3.68,3.68,0,0,1,1.34-.21"/><path d="M23.4,17.76h0l-2.72-.32-2.73.32-.08-.19h-.21l-.6-.49-.36-.41,0-.33-.13-.11a2.1,2.1,0,0,1,.65-.43,2.31,2.31,0,0,1,.87-.2h.2l.38,0a2.39,2.39,0,0,0,.7-.17,4.57,4.57,0,0,1,2.69,0,2.49,2.49,0,0,0,.69.17,2.9,2.9,0,0,0,.57,0,2.41,2.41,0,0,1,1.53.61l-.13.13,0,.32-.55.57-.42.34-.22,0Zm-5.34-2.15a2.24,2.24,0,0,0-.88.2,2.28,2.28,0,0,0-.64.41l.13.1,0,.33.53.55.42.34h.21l.08.2,2.72-.33,2.71.32.07-.18.23,0,.59-.49.35-.4,0-.33.13-.12a2.84,2.84,0,0,0-.64-.39,2.23,2.23,0,0,0-.86-.2,2.89,2.89,0,0,1-.59,0,2.44,2.44,0,0,1-.7-.19,4.7,4.7,0,0,0-2.68,0,2.19,2.19,0,0,1-.7.19,2.69,2.69,0,0,1-.56,0"/><path class="cls-6" d="M20.69,18.79a9.16,9.16,0,0,1-2.57-.32.1.1,0,0,1-.07-.1.12.12,0,0,1,.07-.1A9.55,9.55,0,0,1,20.69,18a9.57,9.57,0,0,1,2.58.32.12.12,0,0,1,.07.1.11.11,0,0,1-.07.1,9.19,9.19,0,0,1-2.58.32"/><path d="M20.69,18.8h0a9.35,9.35,0,0,1-2.57-.31.13.13,0,0,1-.09-.12.12.12,0,0,1,.09-.12,10.52,10.52,0,0,1,5.15,0,.13.13,0,0,1,.09.12.14.14,0,0,1-.09.12,9.48,9.48,0,0,1-2.58.31m0-.83a9.1,9.1,0,0,0-2.57.32.08.08,0,0,0,0,.16,9,9,0,0,0,2.57.32,9,9,0,0,0,2.57-.32.08.08,0,0,0,0-.16A9,9,0,0,0,20.69,18"/><path class="cls-5" d="M20.69,18.65a9.46,9.46,0,0,1-2.38-.27,10,10,0,0,1,2.38-.26,10,10,0,0,1,2.38.26,9.46,9.46,0,0,1-2.38.27"/><polygon points="19.96 18.63 19.96 18.14 19.99 18.63 19.96 18.63"/><polygon points="19.85 18.62 19.85 18.14 19.89 18.62 19.85 18.62"/><path class="cls-6" d="M20.69,18a9,9,0,0,0-2.61.34c.06,0,.06-.1,0-.27s-.21-.2-.21-.2a10.53,10.53,0,0,1,2.83-.35,10.61,10.61,0,0,1,2.84.35s-.13,0-.21.2-.07.24,0,.27A8.93,8.93,0,0,0,20.69,18"/><path d="M23.3,18.3A9.32,9.32,0,0,0,20.69,18a9.19,9.19,0,0,0-2.6.33c0-.05,0-.09,0-.27s-.19-.19-.19-.19h0s0,0,0,0a9.5,9.5,0,0,1,2.79-.36,10.7,10.7,0,0,1,2.85.34s-.13,0-.2.23-.07.22,0,.24Zm-5.39-.48c.05,0,.12.05.17.19s.09.26,0,.29a8.15,8.15,0,0,1,2.6-.36,9.48,9.48,0,0,1,2.56.31.49.49,0,0,1,.06-.24c.08-.19.19-.21.22-.21a12.07,12.07,0,0,0-2.84-.31,10.64,10.64,0,0,0-2.78.33"/><path class="cls-6" d="M20.69,17.47a10.53,10.53,0,0,0-2.83.35.1.1,0,0,1-.12-.05.09.09,0,0,1,.06-.11,11.47,11.47,0,0,1,5.78,0,.08.08,0,0,1,.06.11.1.1,0,0,1-.12.05,10.53,10.53,0,0,0-2.83-.35"/><path d="M23.56,17.84h0a10.4,10.4,0,0,0-2.83-.35,10.32,10.32,0,0,0-2.82.35c-.09,0-.13,0-.14-.07l.07-.11v0a10.34,10.34,0,0,1,2.89-.36,10.52,10.52,0,0,1,2.9.36l.07.13a.1.1,0,0,1-.1.07m-2.87-.53a9.88,9.88,0,0,0-2.88.37l0,.08.07.06,0,0a10.44,10.44,0,0,1,2.83-.34,10.57,10.57,0,0,1,2.84.34h0a.06.06,0,0,0,.06,0l0-.08a10.05,10.05,0,0,0-2.89-.37"/><path d="M20.69,18.67h0a10,10,0,0,1-2.38-.27,8.55,8.55,0,0,1,2.38-.3,9.81,9.81,0,0,1,2.38.27,8.65,8.65,0,0,1-2.38.3m0-.54a10.54,10.54,0,0,0-2.38.27,12,12,0,0,0,2.38.24,10.06,10.06,0,0,0,2.38-.27,12.57,12.57,0,0,0-2.38-.24"/><path class="cls-7" d="M19.9,17.73a.09.09,0,0,1,.18,0,.09.09,0,0,1-.18,0"/><path class="cls-5" d="M20.69,17.79h-.27a.09.09,0,1,1,0-.17H21a.09.09,0,0,1,.09.09.09.09,0,0,1-.1.08Z"/><path d="M21,17.81h-.54a.11.11,0,0,1-.11-.1.1.1,0,0,1,.11-.1H21a.1.1,0,0,1,.11.1.11.11,0,0,1-.12.1m-.54-.17a.07.07,0,0,0-.07.07s0,.06.07.06H21c.05,0,.08,0,.08-.06a.07.07,0,0,0-.07-.07Z"/><path class="cls-8" d="M19.32,17.87l-.19,0a.08.08,0,0,1-.1-.07.08.08,0,0,1,.07-.1l.2,0,.2,0a.08.08,0,0,1,.1.07.09.09,0,0,1-.07.1Z"/><path d="M19.12,17.91a.11.11,0,0,1-.11-.09l.09-.1h0l.4-.05a.13.13,0,0,1,.13.09l-.1.1h0Zm-.08-.1a.08.08,0,0,0,.08.06v0l.4,0,.07-.08h0a.09.09,0,0,0-.07-.06l-.41,0-.08.08Z"/><path class="cls-7" d="M18.53,17.88a.09.09,0,0,1,.18,0,.09.09,0,0,1-.18,0"/><polygon class="cls-5" points="17.92 18.04 18.03 17.91 18.31 17.95 18.08 18.11 17.92 18.04"/><polygon points="18.08 18.13 17.92 18.06 18.02 17.9 18.31 17.93 18.08 18.13"/><path class="cls-8" d="M22.06,17.87l.19,0a.09.09,0,0,0,.11-.07.11.11,0,0,0-.08-.1l-.2,0-.2,0a.09.09,0,0,0-.1.07.1.1,0,0,0,.08.1Z"/><path d="M22.27,17.91l-.41-.05-.09-.11a.09.09,0,0,1,.1-.09l.41.05.09.11a.1.1,0,0,1-.1.09m-.39-.22s-.08,0-.08.06l.06.08.41,0s.07,0,.07-.05l-.06-.08Z"/><path class="cls-7" d="M21.31,17.73a.09.09,0,0,1,.18,0,.09.09,0,0,1-.18,0"/><path class="cls-7" d="M22.67,17.88a.1.1,0,0,1,.1-.08.08.08,0,0,1,.08.08.08.08,0,0,1-.08.09.1.1,0,0,1-.1-.09"/><polygon class="cls-5" points="23.46 18.04 23.36 17.91 23.08 17.95 23.3 18.11 23.46 18.04"/><polygon points="23.3 18.13 23.07 17.96 23.36 17.89 23.47 18.03 23.3 18.13"/><path d="M18.21,18.43v0a9.59,9.59,0,0,1,2.49-.3,9.62,9.62,0,0,1,2.5.3,11.36,11.36,0,0,0-2.5-.26,9.49,9.49,0,0,0-2.48.29"/><path class="cls-6" d="M18.64,15.91l.11.09.18-.28a.64.64,0,0,1-.32-.54.22.22,0,0,1,0-.08c0-.36.45-.65,1-.65a1.38,1.38,0,0,1,.74.2c0-.05,0-.1,0-.15a1.57,1.57,0,0,0-.75-.19,1.07,1.07,0,0,0-1.16.79v.08a.75.75,0,0,0,.27.58Z"/><path d="M18.76,16l-.13-.1.09-.17a.74.74,0,0,1-.28-.57c0-.53.55-.88,1.19-.88a1.61,1.61,0,0,1,.76.19.78.78,0,0,1,0,.16,1.62,1.62,0,0,0-.74-.18c-.55,0-1,.28-1,.63a.61.61,0,0,0,.31.6Zm.87-1.69c-.61,0-1.13.35-1.15.77a.81.81,0,0,0,.26.65l-.09.17.1.06.16-.27a.61.61,0,0,1-.32-.53c0-.45.47-.74,1-.74a1.36,1.36,0,0,1,.74.2.22.22,0,0,1,0-.14,1.71,1.71,0,0,0-.73-.17"/><path class="cls-6" d="M18.65,15.91a.8.8,0,0,1-.36-.62.85.85,0,0,1,.47-.7.74.74,0,0,0-.3.51v.08a.75.75,0,0,0,.27.58Z"/><path d="M18.65,15.94h0a.8.8,0,0,1-.36-.64.86.86,0,0,1,.47-.72.93.93,0,0,0-.27.53.81.81,0,0,0,.26.65Zm.1-1.37a.92.92,0,0,0-.44.72.79.79,0,0,0,.33.6l.08-.14a.74.74,0,0,1-.28-.57.81.81,0,0,1,.31-.61"/><path class="cls-6" d="M16.72,16.2a.79.79,0,0,1-.2-.51.73.73,0,0,1,.08-.33A1.54,1.54,0,0,1,18,14.74a2.76,2.76,0,0,1,.51,0,.6.6,0,0,0-.09.13,1.86,1.86,0,0,0-.42-.05,1.34,1.34,0,0,0-1.25.56.58.58,0,0,0-.06.26.62.62,0,0,0,.23.48l-.22.36-.12-.09Z"/><path d="M16.69,16.56l-.13-.11.15-.26a.7.7,0,0,1-.2-.5.8.8,0,0,1,.07-.34A1.58,1.58,0,0,1,18,14.72a2.1,2.1,0,0,1,.51.06.91.91,0,0,1-.07.14c-.15,0-.29,0-.44,0a1.37,1.37,0,0,0-1.24.54.58.58,0,0,0-.06.26.63.63,0,0,0,.23.47ZM18,14.75a1.53,1.53,0,0,0-1.37.62.61.61,0,0,0-.08.32.78.78,0,0,0,.19.5l-.15.25.11.07.21-.34a.57.57,0,0,1-.24-.48.82.82,0,0,1,.06-.27A1.42,1.42,0,0,1,18,14.86a1.82,1.82,0,0,1,.42,0,.42.42,0,0,1,.08-.12c-.15,0-.32,0-.5,0"/><path class="cls-6" d="M16.94,15a1,1,0,0,0-.34.36.76.76,0,0,0-.08.33.79.79,0,0,0,.2.51l-.13.21a.87.87,0,0,1-.2-.55,1,1,0,0,1,.55-.86"/><path d="M16.59,16.44v0a.91.91,0,0,1-.2-.56,1,1,0,0,1,.56-.87,1.35,1.35,0,0,0-.32.38.61.61,0,0,0-.08.32.78.78,0,0,0,.19.5Zm.06-1.19a.91.91,0,0,0-.24.61.86.86,0,0,0,.18.52l.12-.19a.7.7,0,0,1-.2-.5.83.83,0,0,1,.07-.34.61.61,0,0,1,.07-.1"/><path class="cls-6" d="M20.68,14.24a.32.32,0,0,1,.31.23,2.17,2.17,0,0,1,0,.38v.09a2.46,2.46,0,0,0,.11.71l-.45.43-.45-.43a2.46,2.46,0,0,0,.11-.71v-.09a2.11,2.11,0,0,1,0-.38.31.31,0,0,1,.3-.23"/><path d="M20.68,16.1l-.46-.44a2.4,2.4,0,0,0,.1-.72l0-.09h0a2.34,2.34,0,0,1,0-.39.35.35,0,0,1,.64,0,2.38,2.38,0,0,1,0,.39v.09a2.28,2.28,0,0,0,.1.71Zm0-1.84a.3.3,0,0,0-.29.21,2.17,2.17,0,0,0,0,.38V15a2.65,2.65,0,0,1-.11.71l.43.39.44-.41A1.84,1.84,0,0,1,21,15v-.1h0a1.48,1.48,0,0,0,0-.38.27.27,0,0,0-.28-.21"/><path class="cls-6" d="M20.68,14.38a.17.17,0,0,1,.16.11,2.13,2.13,0,0,1,0,.37V15a2.18,2.18,0,0,0,.1.66l-.29.28-.29-.28a2.55,2.55,0,0,0,.1-.66v-.09c0-.13,0-.26,0-.37a.18.18,0,0,1,.16-.11"/><path d="M20.68,15.91l-.3-.29a2.53,2.53,0,0,0,.09-.67l0-.09h0a3.5,3.5,0,0,1,0-.37c0-.14.31-.15.35,0s0,.23,0,.37V15a2,2,0,0,0,.1.66Zm0-1.51a.13.13,0,0,0-.14.1,1.94,1.94,0,0,0,0,.36V15a2.06,2.06,0,0,1-.1.67l.28.25L21,15.6a1.85,1.85,0,0,1-.1-.65v-.09h0a3.29,3.29,0,0,0,0-.36.13.13,0,0,0-.14-.1"/><path class="cls-6" d="M22.73,15.91l-.12.09-.17-.28a.63.63,0,0,0,.31-.54.22.22,0,0,0,0-.08c0-.36-.45-.65-1-.65a1.34,1.34,0,0,0-.73.2c0-.05,0-.1,0-.15a1.6,1.6,0,0,1,.75-.19c.63,0,1.14.37,1.16.79v.08a.81.81,0,0,1-.26.58Z"/><path d="M22.6,16l-.17-.29a.7.7,0,0,0,.31-.55c0-.43-.46-.71-1-.71a1.25,1.25,0,0,0-.72.2A.77.77,0,0,1,21,14.5a1.52,1.52,0,0,1,.77-.2c.63,0,1.15.35,1.18.8a.82.82,0,0,1-.28.67l.1.13Zm-.86-1.58c.56,0,1,.29,1,.66a.69.69,0,0,1-.32.63l.17.25.1-.08-.1-.13a.85.85,0,0,0,.27-.59,1,1,0,0,0-1.15-.85,1.45,1.45,0,0,0-.74.19.44.44,0,0,1,0,.13,1.16,1.16,0,0,1,.72-.21"/><path class="cls-6" d="M22.72,15.91a.79.79,0,0,0,.35-.62.83.83,0,0,0-.46-.7.73.73,0,0,1,.29.51v.08a.81.81,0,0,1-.26.58Z"/><path d="M22.72,15.94l-.1-.18a.81.81,0,0,0,.27-.58.78.78,0,0,0-.29-.58.77.77,0,0,1,.49.69.82.82,0,0,1-.36.64Zm-.11-1.33a.65.65,0,0,1,.31.49.82.82,0,0,1-.28.67l.08.12a.76.76,0,0,0,.33-.6.82.82,0,0,0-.44-.68"/><path class="cls-6" d="M24.64,16.2a.79.79,0,0,0,.2-.51.73.73,0,0,0-.08-.33,1.53,1.53,0,0,0-1.38-.62,2.67,2.67,0,0,0-.51,0,.57.57,0,0,1,.08.13,2,2,0,0,1,.43-.05,1.35,1.35,0,0,1,1.25.56.58.58,0,0,1,.05.26.61.61,0,0,1-.22.48l.22.36.11-.09Z"/><path d="M24.67,16.56l-.23-.38a.67.67,0,0,0,.23-.49.58.58,0,0,0-.06-.26,1.34,1.34,0,0,0-1.23-.54,2.85,2.85,0,0,0-.42,0l-.11-.13a1.59,1.59,0,0,1,.53-.08,1.53,1.53,0,0,1,1.39.63.71.71,0,0,1,.08.34.79.79,0,0,1-.2.52l.15.22Zm-1.29-1.7a1.39,1.39,0,0,1,1.26.56.6.6,0,0,1,.06.27.66.66,0,0,1-.23.5l.21.32.1-.09-.15-.21a.88.88,0,0,0,.19-.52.71.71,0,0,0-.07-.32,1.53,1.53,0,0,0-1.37-.62,2.1,2.1,0,0,0-.51.06.21.21,0,0,1,.1.09,1.73,1.73,0,0,1,.41,0"/><path class="cls-6" d="M24.42,15a.89.89,0,0,1,.34.36.76.76,0,0,1,.08.33.79.79,0,0,1-.2.51l.13.21a.87.87,0,0,0,.2-.55,1,1,0,0,0-.55-.86"/><path d="M24.78,16.44l-.15-.24a.83.83,0,0,0,.19-.51.71.71,0,0,0-.07-.32.94.94,0,0,0-.34-.35.95.95,0,0,1,.58.84.87.87,0,0,1-.21.56Zm0-1.13,0,0a.83.83,0,0,1,.07.34.79.79,0,0,1-.2.52l.13.17a.93.93,0,0,0,.18-.52.9.9,0,0,0-.21-.55"/><path class="cls-7" d="M20.53,15.7a.15.15,0,0,1,.15-.14.15.15,0,0,1,.16.14.15.15,0,0,1-.16.15.15.15,0,0,1-.15-.15"/><path d="M20.68,15.87a.17.17,0,0,1-.17-.17c0-.18.35-.18.35,0a.17.17,0,0,1-.18.17m0-.3a.14.14,0,0,0-.14.13c0,.15.28.15.28,0a.13.13,0,0,0-.14-.13"/><path class="cls-7" d="M20.53,15.41a.15.15,0,0,1,.15-.15.16.16,0,0,1,.16.15.15.15,0,0,1-.16.15.15.15,0,0,1-.15-.15"/><path d="M20.68,15.58a.18.18,0,0,1-.17-.17c0-.18.35-.18.35,0a.18.18,0,0,1-.18.17m0-.3a.14.14,0,0,0-.14.13c0,.15.28.15.28,0a.13.13,0,0,0-.14-.13"/><path class="cls-7" d="M20.56,15.1a.12.12,0,0,1,.12-.12.12.12,0,1,1,0,.23.11.11,0,0,1-.12-.11"/><path d="M20.68,15.23a.13.13,0,0,1-.14-.13c0-.15.29-.15.29,0a.14.14,0,0,1-.15.13"/><path class="cls-7" d="M20.59,14.81a.09.09,0,0,1,.09-.08.08.08,0,0,1,.09.08.09.09,0,0,1-.09.09.1.1,0,0,1-.09-.09"/><path class="cls-7" d="M20.61,14.56s0-.06.07-.06.08,0,.08.06a.08.08,0,0,1-.08.07.08.08,0,0,1-.07-.07"/><path class="cls-6" d="M20.69,16.6l.11,0a.59.59,0,0,0,0,.13.4.4,0,0,0,.41.39.43.43,0,0,0,.39-.26s0-.14.05-.14,0,.15,0,.14a.38.38,0,0,0,.4.33.4.4,0,0,0,.41-.39v0l.12-.13.07.16a.47.47,0,0,0,0,.17.38.38,0,0,0,.39.37.44.44,0,0,0,.33-.16l.08-.11v.13a.23.23,0,0,0,.18.26.53.53,0,0,0,.33-.14,2.11,2.11,0,0,0,.29-.27l0,.15a1.15,1.15,0,0,1-.33.34.56.56,0,0,1-.35.09.31.31,0,0,1-.25-.23.5.5,0,0,1-.29.09.57.57,0,0,1-.53-.32.61.61,0,0,1-.89,0,.56.56,0,0,1-.4.16.62.62,0,0,1-.5-.26.59.59,0,0,1-.48.26.6.6,0,0,1-.41-.16.61.61,0,0,1-.89,0,.58.58,0,0,1-.53.32.52.52,0,0,1-.29-.09.31.31,0,0,1-.25.23.56.56,0,0,1-.35-.09,1.43,1.43,0,0,1-.34-.34l0-.15a2.78,2.78,0,0,0,.3.27.53.53,0,0,0,.33.14.23.23,0,0,0,.18-.26v-.13l.08.11a.44.44,0,0,0,.33.16.38.38,0,0,0,.39-.37.33.33,0,0,0,0-.17l.07-.16.12.13v0a.4.4,0,0,0,.41.39.38.38,0,0,0,.4-.33s0-.14,0-.14,0,.14.06.14a.41.41,0,0,0,.79-.13.3.3,0,0,0,0-.13Z"/><path d="M23.59,17.66h-.05a.37.37,0,0,1-.25-.24.58.58,0,0,1-.82-.24.61.61,0,0,1-.89,0,.62.62,0,0,1-.9-.11.61.61,0,0,1-.9.11.62.62,0,0,1-.89,0,.57.57,0,0,1-.81.24.3.3,0,0,1-.23.23.88.88,0,0,1-.37-.1,1.17,1.17,0,0,1-.33-.34v-.16s.14.11.32.26a.6.6,0,0,0,.32.13c.1,0,.17-.11.17-.25v-.12l.12.09a.39.39,0,0,0,.68-.19.38.38,0,0,0,0-.16l.06-.17.16.12a.39.39,0,0,0,.39.42.38.38,0,0,0,.39-.31c0-.14,0-.16,0-.16s0,0,.06.1a.4.4,0,0,0,.78-.07.5.5,0,0,0,0-.12l.11,0,.12,0a.93.93,0,0,0,0,.14.4.4,0,0,0,.77.12c.05-.13.05-.15.07-.15s0,0,0,.12a.38.38,0,0,0,.39.35.37.37,0,0,0,.39-.37l0,0a.42.42,0,0,1-.84.09c0-.05,0-.09,0-.12s0,0,0,.07a.43.43,0,0,1-.84-.08.36.36,0,0,1,0-.14l-.19,0s0,.07,0,.11a.41.41,0,0,1-.42.41.44.44,0,0,1-.41-.28l0-.11v.07a.42.42,0,0,1-.84,0l-.13-.16,0,.16a.24.24,0,0,1,0,.16.42.42,0,0,1-.74.21l-.08-.1,0,.11a.27.27,0,0,1-.19.29.57.57,0,0,1-.35-.15,1.91,1.91,0,0,1-.3-.27l0,.14a1.23,1.23,0,0,0,.32.32.62.62,0,0,0,.3.1.34.34,0,0,0,.28-.22.6.6,0,0,0,.81-.24.65.65,0,0,0,.89,0,.65.65,0,0,0,.9-.11.64.64,0,0,0,.9.1.63.63,0,0,0,.89,0,.62.62,0,0,0,.82.23.41.41,0,0,0,.26.23h0a.66.66,0,0,0,.3-.1,1.09,1.09,0,0,0,.32-.33v-.13a1.07,1.07,0,0,1-.27.27.59.59,0,0,1-.34.15c-.13,0-.2-.13-.2-.29v-.12l-.05.11a.41.41,0,0,1-.34.17.39.39,0,0,1-.4-.38.29.29,0,0,1,0-.17l-.07-.15-.1.12.1-.14.1.17a.33.33,0,0,0,0,.17.39.39,0,0,0,.68.19l.08-.1,0,.13c0,.14.06.24.16.25a.62.62,0,0,0,.32-.13A1.84,1.84,0,0,0,24.2,17l0,.16a1.07,1.07,0,0,1-.33.36.71.71,0,0,1-.32.1"/><path class="cls-7" d="M23.49,17.11c0-.07,0-.14,0-.15s-.11,0-.14.09a.13.13,0,0,0,.05.16.12.12,0,0,0,.13-.1"/><path d="M23.38,17.23h0c-.07-.09-.08-.14-.06-.18a.15.15,0,0,1,.13-.11l.07,0a.18.18,0,0,1,0,.13.15.15,0,0,1-.13.11"/><path class="cls-7" d="M21.72,16.77c0-.08,0-.13-.07-.14s-.1.05-.12.11,0,.14.08.15a.13.13,0,0,0,.11-.12"/><path d="M21.61,16.9h0c-.06,0-.1-.08-.09-.16s.06-.13.11-.13a.15.15,0,0,1,0,.29"/><path class="cls-7" d="M19.67,16.77c0-.08,0-.13.07-.14s.11.05.11.11,0,.14-.07.15a.13.13,0,0,1-.11-.12"/><path d="M19.77,16.9a.13.13,0,0,1-.12-.13.13.13,0,0,1,.09-.16.14.14,0,0,1,.13.13c0,.08,0,.16-.09.16Z"/><path class="cls-7" d="M17.9,17.11c0-.07,0-.14.05-.15s.1,0,.13.09a.13.13,0,0,1,0,.16.12.12,0,0,1-.13-.1"/><path class="cls-6" d="M18.67,15.93a.47.47,0,0,1,.19.25.16.16,0,0,1,.06-.05.19.19,0,0,1,.09,0l0,.11a.76.76,0,0,1,0,.19.71.71,0,0,1-.05.15.17.17,0,0,0-.13,0,.15.15,0,0,0-.11.08.5.5,0,0,1-.1-.12c-.05-.07-.08-.15-.1-.17l-.06-.1h.1a.14.14,0,0,1,.07,0,.4.4,0,0,1,.09-.3"/><path d="M18.67,16.61h0a.72.72,0,0,1-.11-.12.75.75,0,0,1-.06-.13l-.1-.14.12,0,.08,0a.33.33,0,0,1,.06-.3.37.37,0,0,1,.22.26c.09-.09.12-.09.14-.09s0,.1,0,.13,0,.14,0,.19a1,1,0,0,1-.06.15l-.12,0a.14.14,0,0,0-.12.06Zm-.21-.41,0,0,.07.07a1.22,1.22,0,0,0,.09.17.49.49,0,0,0,.08.1.24.24,0,0,1,.12-.07.17.17,0,0,1,.13,0s0-.07,0-.13a.36.36,0,0,0,0-.14l0-.14-.06,0,0,0h-.07a.42.42,0,0,0-.18-.24.68.68,0,0,0-.07.28v0Z"/><path class="cls-6" d="M18.71,16.77a.16.16,0,0,1-.06-.08.14.14,0,0,1,0-.11l-.15,0a.86.86,0,0,0-.21,0h-.09l0,0,0,.05a.43.43,0,0,0-.25.18.44.44,0,0,0,.3.08.25.25,0,0,0,0,.07v0l.09,0,.18-.08.13-.11"/><path d="M18.3,17v-.07c-.11-.06-.2-.09-.28-.14a.38.38,0,0,1,.25-.2v0a.37.37,0,0,0-.24.17.92.92,0,0,0,.25.05h0l0,.09,0,0,.07,0a.55.55,0,0,0,.18-.08.5.5,0,0,0,.12-.1s-.05,0-.06-.07a.14.14,0,0,1,0-.11s-.08,0-.14,0h-.19l-.1,0h.1a.87.87,0,0,1,.2,0,1.5,1.5,0,0,1,.16.06.26.26,0,0,0,0,.11.16.16,0,0,0,.06.08s-.06.09-.13.13a.67.67,0,0,1-.18.08Z"/><path class="cls-6" d="M18.94,16.74a.13.13,0,0,0,0-.1.23.23,0,0,0-.05-.1l.12-.1.17-.08.09,0v.05l0,.07a.44.44,0,0,1,.3.08.44.44,0,0,1-.25.17.22.22,0,0,1,0,.07l0,0h-.09a.79.79,0,0,1-.2,0l-.15-.05"/><path d="M19.38,16.82h-.3l-.15-.06a.23.23,0,0,0,0-.11.14.14,0,0,0-.05-.08s.06-.09.13-.14a.91.91,0,0,1,.18-.08l.09,0v.06h-.06l-.18.08a1,1,0,0,0-.11.11s0,0,.06.07a.23.23,0,0,1,0,.11s.07,0,.13,0h.2l.09,0h0Zm0,0,0-.1a.36.36,0,0,0,.23-.17.57.57,0,0,0-.24-.06h0v0a.47.47,0,0,1,.3.09.42.42,0,0,1-.26.2Z"/><path class="cls-5" d="M18.63,16.66a.18.18,0,0,1,.18-.17.17.17,0,1,1,0,.34.18.18,0,0,1-.18-.17"/><path d="M18.81,16.84a.19.19,0,0,1-.2-.18c0-.21.39-.21.39,0a.19.19,0,0,1-.19.18m0-.34a.17.17,0,0,0-.17.16c0,.17.33.17.33,0a.16.16,0,0,0-.16-.16"/><path class="cls-6" d="M20.69,15.66a.52.52,0,0,1,.16.31s0,0,.07,0a.23.23,0,0,1,.11,0L21,16a1.59,1.59,0,0,1-.08.21.51.51,0,0,1-.08.15.17.17,0,0,0-.14-.06.2.2,0,0,0-.14.06.7.7,0,0,1-.09-.15c0-.08,0-.18-.06-.21l0-.11a.2.2,0,0,1,.1,0,.22.22,0,0,1,.08,0,.47.47,0,0,1,.16-.31"/><path d="M20.83,16.42v0a.19.19,0,0,0-.26,0,.43.43,0,0,1-.11-.15c0-.05,0-.11-.05-.15l-.07-.18h0l.05.11a1.13,1.13,0,0,0,.06.21.54.54,0,0,0,.08.14c0-.08.19-.09.27,0a.42.42,0,0,0,.07-.12l.06-.15c0-.07.05-.15.05-.17h0A.78.78,0,0,1,21,16a1,1,0,0,1-.07.21.44.44,0,0,1-.09.14Zm.08-.44h-.07a.47.47,0,0,0-.16-.3.54.54,0,0,0-.13.3l-.17-.05h.07v0l.09.05a.35.35,0,0,1,.13-.31.4.4,0,0,1,.18.29l.06,0H21Z"/><path class="cls-6" d="M20.56,16.61a.17.17,0,0,1,0-.12.14.14,0,0,1,0-.1,1.23,1.23,0,0,0-.16-.1.74.74,0,0,0-.22-.05l-.1,0a.18.18,0,0,0,0,.05.18.18,0,0,1,0,.08.56.56,0,0,0-.31.14.42.42,0,0,0,.31.15.18.18,0,0,1,0,.08v.05l.1,0a.74.74,0,0,0,.22-.05l.16-.09"/><path d="M20.06,16.8l0-.09c-.07-.06-.19-.12-.28-.2a.41.41,0,0,1,.32-.17v0a.51.51,0,0,0-.3.15.7.7,0,0,0,.3.12h0l-.06.12h.09l.21,0,.16-.1s-.05-.05-.05-.1a.17.17,0,0,1,0-.11l-.15-.07a.58.58,0,0,0-.2,0l-.11-.06.11,0s.15,0,.21.06l.17.09a.24.24,0,0,0,0,.12.15.15,0,0,0,0,.1.31.31,0,0,1-.17.12.76.76,0,0,1-.2.06Z"/><path class="cls-6" d="M20.83,16.61a.16.16,0,0,0,0-.12.13.13,0,0,0,0-.1.74.74,0,0,1,.16-.1.63.63,0,0,1,.21-.05l.11,0,0,.05,0,.08a.56.56,0,0,1,.31.14.42.42,0,0,1-.31.15l0,.08a.12.12,0,0,0,0,.05l-.11,0A.63.63,0,0,1,21,16.7a1,1,0,0,1-.16-.09"/><path d="M21.3,16.79l-.1,0a.79.79,0,0,1-.22-.06.54.54,0,0,1-.16-.09.38.38,0,0,0,0-.13.21.21,0,0,0,0-.1s.07-.08.16-.11.16,0,.2-.06l.12,0a.41.41,0,0,1,0,.16.36.36,0,0,1,.32.13.53.53,0,0,1-.33.17v0a.52.52,0,0,0,.3-.14.58.58,0,0,0-.3-.13h0l0-.09-.08,0a1,1,0,0,0-.21.06.58.58,0,0,0-.15.09.09.09,0,0,1,.05.09.17.17,0,0,1-.05.12h0l.14.08.2,0,.11,0h0v0h0Z"/><path class="cls-6" d="M22.73,15.93a.49.49,0,0,0-.2.25.16.16,0,0,0-.06-.05.17.17,0,0,0-.09,0,6.54,6.54,0,0,1,.05.3.71.71,0,0,0,.05.15.16.16,0,0,1,.13,0,.2.2,0,0,1,.12.08.63.63,0,0,0,.09-.12,1,1,0,0,0,.09-.17.63.63,0,0,0,.07-.1h-.1a.14.14,0,0,0-.07,0,.44.44,0,0,0-.08-.3"/><path d="M22.72,16.61v0a.13.13,0,0,0-.1-.06.16.16,0,0,0-.11,0,.19.19,0,0,1-.08-.15.36.36,0,0,1,0-.14l0-.16a.09.09,0,0,1,.11,0l.07.05a.33.33,0,0,1,.17-.26.4.4,0,0,1,.1.32l.06,0-.06,0a.72.72,0,0,0-.11-.3.56.56,0,0,0-.16.24v0l-.07-.05c-.07,0,0,0,0,.06a.68.68,0,0,0,0,.19,1.36,1.36,0,0,0,.05.14s0-.05.09-.05a.23.23,0,0,1,.14.07.49.49,0,0,0,.08-.1s.05-.09.07-.12l.05-.08v0a1.22,1.22,0,0,1-.09.17c-.05.07-.1.11-.1.12Z"/><path class="cls-6" d="M22.69,16.77s0-.05,0-.08a.37.37,0,0,0,0-.11l.14,0a.83.83,0,0,1,.2,0h.1l0,0,0,.05a.53.53,0,0,1,.26.18.47.47,0,0,1-.31.08l0,.07v0L23,17l-.18-.08a.72.72,0,0,1-.12-.11"/><path d="M23.07,17,23,17a.75.75,0,0,1-.2-.08l-.12-.1c0-.05,0-.07.06-.11a.1.1,0,0,0,0-.09.32.32,0,0,1,.16-.08.87.87,0,0,1,.2,0h.1l-.06.11a.51.51,0,0,1,.26.18.43.43,0,0,1-.28.11l0,.09h0Zm-.37-.23s.07,0,.12.08a.8.8,0,0,0,.17.08l.08,0,0,0v-.07a.47.47,0,0,0,.28-.08.53.53,0,0,0-.24-.14h0l.06-.09h-.25l-.15.05a.08.08,0,0,1,0,.1.11.11,0,0,1-.05.09"/><path class="cls-6" d="M22.45,16.74a.2.2,0,0,1,0-.1.17.17,0,0,1,.06-.1l-.13-.1-.17-.08-.09,0v.05l0,.07a.44.44,0,0,0-.3.08.44.44,0,0,0,.25.17.22.22,0,0,0,0,.07l0,0h.09a.79.79,0,0,0,.2,0l.15-.05"/><path d="M22,16.83l0-.07c-.05-.07-.15-.13-.21-.22a.38.38,0,0,1,.27-.11v-.08l0,.12a.43.43,0,0,0-.29.08.53.53,0,0,0,.24.14h0L22,16.8h.27a.67.67,0,0,0,.15-.06s0,0,0-.09a.11.11,0,0,1,0-.09l-.12-.09s-.14-.06-.17-.08l-.09,0v0l.1,0,.17.08.13.11a.25.25,0,0,0-.05.11.1.1,0,0,0,0,.09.38.38,0,0,1-.17.08H22Z"/><path class="cls-5" d="M22.4,16.66a.18.18,0,0,1,.18-.17.17.17,0,1,1,0,.34.18.18,0,0,1-.18-.17"/><path d="M22.58,16.84a.19.19,0,0,1-.19-.18c0-.21.39-.21.39,0a.19.19,0,0,1-.2.18m0-.34a.17.17,0,0,0-.16.16c0,.17.32.17.32,0a.16.16,0,0,0-.16-.16"/><path class="cls-5" d="M24.41,17c0-.05-.13,0-.2,0a.12.12,0,0,0,0,.18s.13,0,.19,0,.08-.14,0-.18"/><path d="M24.24,17.28l-.08,0a.18.18,0,0,1,.18-.26l.08,0c0,.12,0,.16,0,.2a.19.19,0,0,1-.14.05"/><path class="cls-6" d="M24.16,17.15a.13.13,0,0,1,.05-.09c.07-.06.16-.07.2,0s0,0,0,0a.66.66,0,0,1,.2-.24.7.7,0,0,1,.28,0,.24.24,0,0,0-.24-.24.23.23,0,0,0-.2.1l0-.09a.23.23,0,0,0-.16.14.63.63,0,0,0,0,.32.32.32,0,0,0-.07-.13c0-.06-.15-.11-.2-.14l-.11-.06s0,0,0,.05v.07a.63.63,0,0,0-.31,0,.38.38,0,0,0,.21.2l-.07.06a.12.12,0,0,1,0,0l.11,0,.22,0,.15,0"/><path d="M24,17.18l-.19,0h-.12l.1-.14a.29.29,0,0,1-.22-.17.48.48,0,0,1,.26-.07l.06-.09s.08,0,.13.05a.59.59,0,0,1,.22.14l0,0a.5.5,0,0,1,0-.21.27.27,0,0,1,.18-.16l0,.1a.19.19,0,0,1,.19-.1.25.25,0,0,1,.26.25,1,1,0,0,0-.3.06.72.72,0,0,0-.19.22l-.1,0a.16.16,0,0,0-.11.05.1.1,0,0,0-.05.08.86.86,0,0,1-.17,0Zm-.15-.37a.59.59,0,0,0-.26,0,.55.55,0,0,0,.22.16l-.07.09.06,0,.2,0v0l0,0,.14,0s0-.06.05-.09l.08,0s-.05-.07-.08-.11a.46.46,0,0,0-.2-.13l-.11-.07v.12Zm.5.18.08,0a.66.66,0,0,1,.2-.22.52.52,0,0,1,.24,0c.06-.17-.27-.26-.39-.11l0-.1s-.09,0-.13.15a.5.5,0,0,0,0,.3h0"/><path class="cls-6" d="M17.23,17.15a.15.15,0,0,0-.06-.09A.13.13,0,0,0,17,17s0,0,0,0a.56.56,0,0,0-.2-.24.75.75,0,0,0-.29,0,.25.25,0,0,1,.25-.24.28.28,0,0,1,.21.1l0-.09a.23.23,0,0,1,.16.14.59.59,0,0,1,0,.32l.07-.13a.85.85,0,0,1,.21-.14l.12-.06v.12a.7.7,0,0,1,.32,0,.43.43,0,0,1-.22.2l.07.06,0,0-.1,0-.22,0-.15,0"/><path d="M17.4,17.18h0l-.15,0a.22.22,0,0,0-.07-.09.16.16,0,0,0-.11-.05v0H17a.72.72,0,0,0-.19-.22.51.51,0,0,0-.23,0v0a.39.39,0,0,1,.25,0c.11.05.2.22.21.23s.07-.07.13-.05v0a.84.84,0,0,0,0-.27.25.25,0,0,0-.16-.14v.08c-.16-.11-.38-.08-.43.06,0-.19.32-.21.43-.07v-.09a.23.23,0,0,1,.2.15.71.71,0,0,1,0,.21,0,0,0,0,1,0,0,.74.74,0,0,1,.22-.14l.11-.07v0h0a.29.29,0,0,1-.1.07.53.53,0,0,0-.2.13.33.33,0,0,0-.06.12s0,0,.05,0a.23.23,0,0,1,.07.1s.08,0,.13,0l0,0v0l.19,0h.05l0,0-.2,0m.27-.09L17.59,17a.55.55,0,0,0,.21-.22h-.25l-.07,0v0a.71.71,0,0,1,.32,0,.35.35,0,0,1-.21.22l.07,0Z"/><path class="cls-5" d="M17,17a.13.13,0,0,1,.19,0c.07.05.09.13,0,.18a.15.15,0,0,1-.19,0c-.07-.06-.08-.14,0-.18"/><path d="M17.15,17.28a.21.21,0,0,1-.21-.18c.11-.22.17-.12.24-.06a.21.21,0,0,1,.07.13c0,.1-.08.11-.1.11"/><path class="cls-5" d="M20.51,16.49a.18.18,0,0,1,.36,0,.18.18,0,1,1-.36,0"/><path d="M20.69,16.68a.19.19,0,0,1-.19-.19c0-.2.38-.2.38,0a.18.18,0,0,1-.19.19m0-.34a.16.16,0,0,0-.16.15c0,.17.33.18.33,0a.16.16,0,0,0-.17-.15"/><path class="cls-9" d="M20.32,13.91a.35.35,0,0,1,.37-.34.35.35,0,0,1,.36.34.36.36,0,0,1-.36.35.36.36,0,0,1-.37-.35"/><path d="M20.69,14.27a.36.36,0,1,1,.37-.36.37.37,0,0,1-.37.36m0-.7a.35.35,0,0,0-.36.34.36.36,0,0,0,.71,0,.35.35,0,0,0-.35-.34"/><path class="cls-6" d="M20.59,12.94v.18h-.2v.2h.2v.55h-.26s0,0,0,0a.22.22,0,0,0,0,.14H21a.33.33,0,0,0,0-.14s0,0,0,0h-.24v-.55H21v-.2h-.2v-.18Z"/><path d="M21,14.06h-.67a.28.28,0,0,1,0-.15h0a.24.24,0,0,0,0,.14H21a.51.51,0,0,0,0-.13l-.25,0v-.55H21v-.19l-.19,0v-.2h-.19v.17l-.21,0v.18h.19v.56h-.08l.07,0v-.53h-.19v-.21h.21v-.17l.21,0v.2H21v.21h-.21v.54l.23,0c0,.11,0,.16,0,.2Z"/><path class="cls-10" d="M20.72,28.58a7.06,7.06,0,0,1-3.06-.71,2,2,0,0,1-1.11-1.76V23.35h8.32v2.76a2,2,0,0,1-1.1,1.76,7.05,7.05,0,0,1-3.05.71"/><path d="M20.72,28.59a7.26,7.26,0,0,1-3.07-.7,2,2,0,0,1-1.12-1.78V23.35l8.34,0,0,2.78a2,2,0,0,1-1.12,1.78,7,7,0,0,1-3.05.7m4.13-5.24-8.3,0,0,2.74a1.94,1.94,0,0,0,1.09,1.74,7.1,7.1,0,0,0,6.09,0,1.94,1.94,0,0,0,1.09-1.74Z"/><rect class="cls-10" x="20.7" y="18.73" width="4.17" height="4.62"/><path d="M24.89,23.37H20.7l0-4.64,4.19,0Zm0-4.64-4.15,0,0,4.59,4.13,0Z"/><path class="cls-5" d="M20.71,26.11a2.08,2.08,0,0,1-4.16,0V23.35h4.16Z"/><path class="cls-6" d="M17.45,27.74A2.69,2.69,0,0,0,18,28V23.25h-.5Z"/><path d="M18,28h0a1.79,1.79,0,0,1-.42-.19l-.08-.05v-4.5l.51,0Zm-.06-4.75-.47,0,0,4.47.07,0a2,2,0,0,0,.39.17Z"/><path class="cls-6" d="M16.54,26.07a2.1,2.1,0,0,0,.48,1.3v-4.1h-.47Z"/><path d="M17,27.39s0,0,0,0a2.07,2.07,0,0,1-.48-1.31v-2.8l.49,0,0,4.12a0,0,0,0,1,0,0Zm0-4.12-.45,0v2.77A2.13,2.13,0,0,0,17,27.31Z"/><path class="cls-11" d="M18.39,28.07a1.92,1.92,0,0,0,.48,0V23.25h-.48Z"/><path d="M18.63,28.11l-.25,0,0-4.84.51,0,0,4.84a.87.87,0,0,1-.26,0m.22-4.86-.47,0,0,4.8h.46Z"/><path class="cls-6" d="M19.3,28a1.51,1.51,0,0,0,.49-.22v-4.5h-.48Z"/><path d="M19.28,28V23.25l.5,0,0,4.52a1.4,1.4,0,0,1-.52.24Zm.5-4.74-.47,0v4.67a1.42,1.42,0,0,0,.46-.21Z"/><rect class="cls-5" x="16.55" y="18.73" width="4.16" height="4.62"/><path d="M20.72,23.37H16.55l0-4.64,4.18,0Zm0-4.64-4.13,0,0,4.59,4.11,0Z"/><path class="cls-6" d="M20.25,27.32a1.84,1.84,0,0,0,.46-1.05v-3h-.48Z"/><path d="M20.22,27.37V23.25l.5,0,0,3a1.94,1.94,0,0,1-.47,1.07Zm.49-4.12-.47,0,0,4a1.93,1.93,0,0,0,.42-1Z"/><path d="M18.63,28.1a2,2,0,0,1-2.1-2V23.34h4.18l0,2.78a2.05,2.05,0,0,1-2.1,2m2.06-4.76-4.14,0,0,2.74a2.06,2.06,0,0,0,4.12,0Z"/><path class="cls-5" d="M24.88,23.34v2.77a2.09,2.09,0,0,1-4.17,0V23.34Z"/><path d="M22.79,28.1a2,2,0,0,1-2.1-2V23.34h4.19l0,2.78a2.06,2.06,0,0,1-2.11,2m2.06-4.76-4.14,0,0,2.74a2.06,2.06,0,0,0,4.12,0Z"/><path class="cls-6" d="M21.46,25.43l0,0a.1.1,0,0,1-.2,0l0,0h-.14a.08.08,0,0,0,0,0,.23.23,0,0,0,.16.21V26h.15v-.33a.2.2,0,0,0,.13-.14H22v-.11Zm1.88,0v.11H23l0,0,.4.45-.11.09-.39-.46h0v.75H22.7v-.75h0l-.41.46L22.17,26l.41-.46,0,0h-.35v-.11Zm.22,0v.11h.38a.24.24,0,0,0,.14.14V26h.15v-.33a.22.22,0,0,0,.15-.21v0h-.14a.08.08,0,0,1,0,0,.1.1,0,0,1-.09.1.1.1,0,0,1-.1-.1l0,0ZM23,27.34a1.58,1.58,0,0,0,.31-.09l.07.12a1.41,1.41,0,0,1-.38.1.2.2,0,0,1-.21.17.22.22,0,0,1-.22-.17,1.67,1.67,0,0,1-.4-.1l.07-.12a2.14,2.14,0,0,0,.34.09.3.3,0,0,1,.13-.12v-.58h.15v.58a.24.24,0,0,1,.14.12m-.95-.2-.07.12a1.18,1.18,0,0,1-.32-.27.22.22,0,0,1-.22,0,.23.23,0,0,1,0-.31h0a1.46,1.46,0,0,1-.11-.41h.15a.86.86,0,0,0,.09.35h.11L22,26.2l.11.09-.35.39a.21.21,0,0,1,0,.24,1,1,0,0,0,.27.22m-.53-.41a.1.1,0,1,1,.15.13.12.12,0,0,1-.14,0,.09.09,0,0,1,0-.13m-.18-.38-.15,0,0-.37.15,0v.21a1.94,1.94,0,0,0,0,.24m.13-.46.14,0v.19c0-.07,0,.18,0,.18l-.14.05a1.77,1.77,0,0,1,0-.23Zm.47,1.18a1.53,1.53,0,0,0,.42.22l0-.14A1,1,0,0,1,22,27Zm-.07.12a1.68,1.68,0,0,0,.42.22l-.11.1a1.35,1.35,0,0,1-.34-.17Zm.19-.81.14.05.25-.27L22.36,26Zm-.1-.09-.09-.12.25-.28.14.05Zm1.55.85.07.12a1.18,1.18,0,0,0,.32-.27.2.2,0,0,0,.21,0,.23.23,0,0,0,0-.31h0a1.45,1.45,0,0,0,.1-.41h-.14a1.06,1.06,0,0,1-.09.35h-.12l-.36-.39-.1.09.35.39a.2.2,0,0,0,0,.24,1.18,1.18,0,0,1-.27.22m.53-.41a.11.11,0,0,0-.14,0,.1.1,0,0,0,0,.14.12.12,0,0,0,.14,0,.09.09,0,0,0,0-.13m.17-.38.15,0,0-.37-.14,0v.21a1,1,0,0,1,0,.24m-.12-.46-.15,0v.19c0-.07,0,.18,0,.18l.15.05a1.77,1.77,0,0,0,0-.23Zm-.47,1.18a1.53,1.53,0,0,1-.42.22l0-.14A1,1,0,0,0,23.5,27Zm.07.12a1.68,1.68,0,0,1-.42.22l.11.1a1.29,1.29,0,0,0,.33-.17Zm-.19-.81-.14.05-.25-.27.08-.13Zm.1-.09.09-.12-.25-.28-.14.05Zm-1.73-.74,0,.13h.39l0-.13Zm1.82,0,0,.13h-.39l0-.13Zm-1,1.88a.1.1,0,0,1,.1-.09.09.09,0,0,1,.09.09.1.1,0,0,1-.09.09.11.11,0,0,1-.1-.09m.17-.67.14,0v-.37l-.14,0Zm-.15,0-.14,0v-.37l.14,0Z"/><path class="cls-6" d="M21.16,25.44a.22.22,0,0,1,.15-.17v-.45h.14v.46a.22.22,0,0,1,.15.13H22v0h-.52a.1.1,0,0,0-.08-.06.09.09,0,0,0-.08.06Zm1.05,0v0h.35s0,0,0,0l-.44-.48.11-.09.43.48h0v-.64h.14v.63h0l.43-.48.1.08-.42.48a.17.17,0,0,1,0,.05h.35v0Zm1.87,0a.08.08,0,0,1,.16,0h.14a.22.22,0,0,0-.15-.17v-.45h-.15v.46a.23.23,0,0,0-.14.13h-.37v0Zm-2.61-1.29.53.58.1-.08-.52-.59,0,0H22v-.14h-.37a.24.24,0,0,0-.22-.15.22.22,0,0,0-.23.21.22.22,0,0,0,.15.21v.45h.14v-.45h0m2.76,0v.45h-.15v-.45h0l-.52.58-.1-.09L24,24a0,0,0,0,1,0,0h-.39v-.14h.38a.24.24,0,0,1,.22-.15.21.21,0,0,1,.22.21.21.21,0,0,1-.15.21m-1.39,0v.28H22.7v-.28a.24.24,0,0,1-.15-.13h-.34v-.14h.34a.23.23,0,0,1,.22-.15.24.24,0,0,1,.22.15h.35V24H23a.24.24,0,0,1-.15.13m-1.53.34-.15,0v.37l.15,0Zm.15,0,.14,0v.37l-.14,0Zm2.62,0-.14,0v.37l.14,0Zm.15,0,.14,0v.37l-.14,0Zm-2.2.07.13-.06.26.28-.09.12Zm-.12.08-.07.13.25.28.14-.06Zm1.6-.09-.14-.06-.25.28.08.12Zm.1.08.09.13-.25.27L23.31,25Zm-1.75.78,0-.13h.39l0,.13Zm-.57-1.47a.1.1,0,0,1,.1-.09.1.1,0,0,1,.09.09.1.1,0,0,1-.09.1.1.1,0,0,1-.1-.1m1,.08,0,.13H21.9l0-.13Zm0-.14,0-.14H21.9l0,.14Zm1.35,1.53,0-.13h-.39l0,.13Zm.38-1.47a.1.1,0,1,1,.1.1.11.11,0,0,1-.1-.1m-1.39,0a.1.1,0,1,1,.1.1.11.11,0,0,1-.1-.1m.55.08,0,.13h.39l0-.13Zm0-.14,0-.14h.39l0,.14Zm-.52.43-.14,0v.37l.14,0Zm.14,0,.15,0v.37l-.15,0Z"/><path class="cls-6" d="M22.78,27.65a.25.25,0,0,1-.24-.17l-.27-.06h0l-.1.11h0a1.16,1.16,0,0,1-.35-.18l0-.15a1.07,1.07,0,0,1-.16-.14l.18.13.09.07.06-.11-.1-.06-.16-.15a.23.23,0,0,0,0-.24l.35-.41L22,26.21l-.34.39h-.09l0,0a.18.18,0,0,1,.11,0l.34-.4.12.09-.35.41a.17.17,0,0,1,0,.23l.16.15L22,27a1.26,1.26,0,0,0,.35.17l0,.14a.8.8,0,0,0,.21,0,.26.26,0,0,1,.13-.12v-.57h.15v.59a.19.19,0,0,1,.14.12l.31-.1.08.12a1.32,1.32,0,0,1-.38.13.21.21,0,0,1-.22.16m-.55-.27.05,0a1.4,1.4,0,0,0,.28.06.23.23,0,0,0,.43,0,2.11,2.11,0,0,0,.38-.11l-.08-.11a.88.88,0,0,1-.3.1.29.29,0,0,0-.15-.12v-.59l-.14,0v.56a.26.26,0,0,0-.13.12.78.78,0,0,1-.22,0h0l-.11,0-.05.1.05,0m-.38-.18v.14a2,2,0,0,0,.33.16l.09-.08,0,0-.06,0-.19-.1h0l-.11-.07m.2-.06.19.1.1,0,0-.13A.91.91,0,0,1,22,27l-.08.09.1.07M21.58,27a.19.19,0,0,1-.15-.05.18.18,0,0,1-.08-.15.22.22,0,0,1,.06-.17,1.4,1.4,0,0,1-.09-.29l-.14,0,0-.38.15-.05v-.21a.22.22,0,0,1-.16-.21.23.23,0,0,1,.17-.21v-.44l.15,0v.47a.18.18,0,0,1,.14.14H22l0,.14h-.4a.16.16,0,0,1-.13.13v.21l.14,0,0,.38-.15.06a1.59,1.59,0,0,0,.07.2.52.52,0,0,1-.09-.2h0a.43.43,0,0,0,0-.11h-.11v.06l0,.05a1.15,1.15,0,0,0,.08.29.25.25,0,0,0-.07.17.29.29,0,0,0,.08.14.25.25,0,0,0,.15.05,0,0,0,0,1,0,0Zm-.27-1.1-.14.05,0,.36h.13a.31.31,0,0,1,0-.1v-.31Zm.15.11v.21a.3.3,0,0,1,0,.1l.13,0,0-.36-.13,0Zm0-1.2h-.13v.45a.21.21,0,0,0-.16.2.21.21,0,0,0,.15.2v.27l.12.06v-.32a.24.24,0,0,0,.14-.14H22v-.12H21.6a.29.29,0,0,0-.15-.14Zm1.41,1.62H22.7v-.35l0,.34h.12v-.74l0,0Zm.42-.3-.17-.2.17.18.09-.09-.4-.44H23l.37.45Zm-1,0-.12-.08.11-.12-.1.11.11.08.4-.46v0Zm.26-.56-.33,0v-.14h0v.12h.34Zm.71,0,.08,0v-.12H23l0-.05.3,0v.14Zm-.71-.17-.41-.48.12-.1.17.18-.18-.16-.09.08.44.47Zm.33-.1v0l.4-.46.13.09-.09.1.07-.1-.11-.07Zm-.16,0,0,0v-.61h.15v0H22.7ZM22,24.74l-.32-.34.32.32.1-.09-.53-.56h.06l.48.57Zm-.69-.13v-.46a.22.22,0,0,1-.16-.21c0-.22.4-.27.47-.07H22L22,24h0v-.12H21.6c-.09-.2-.43-.15-.43.05a.22.22,0,0,0,.14.2v.46h.13v-.44l0,0v.43Z"/><path class="cls-6" d="M23.37,27.53l-.12-.11a2.72,2.72,0,0,0,.3-.16l-.06-.1a1.11,1.11,0,0,1-.29.14h0l0-.16a1.22,1.22,0,0,0,.34-.18l.12.09.15-.15a.19.19,0,0,1,0-.24l-.35-.37.11-.11.37.4a.11.11,0,0,1,.08,0,.6.6,0,0,0,.09-.22l-.13-.05v-.38l.15,0v-.2a.19.19,0,0,1-.14-.13h-.37l0-.14h.39a.2.2,0,0,1,.14-.14v-.32l-.14,0v-.39l.15-.05v.34h.14v.47a.21.21,0,0,1,.16.2.23.23,0,0,1-.17.22v.21l.14,0,0,.39-.15,0a1,1,0,0,1-.08.28.22.22,0,0,1,.06.17.24.24,0,0,1-.08.15A.23.23,0,0,1,24,27a1.58,1.58,0,0,0-.27.18h0l0,.13a1,1,0,0,1-.35.19Zm.25-.29,0,0a2.2,2.2,0,0,1-.31.15l.1.08a1.29,1.29,0,0,0,.33-.17l0-.12-.05,0M23.49,27a.83.83,0,0,1-.32.18l0,.12a1.31,1.31,0,0,0,.4-.22Zm0-.77-.09.09.35.37a.23.23,0,0,0,0,.24,1.27,1.27,0,0,1-.27.25l.07.09.09-.07a1.2,1.2,0,0,0,.21-.19c.13,0,.18,0,.21,0a.19.19,0,0,0,.08-.14.23.23,0,0,0-.05-.15,2.6,2.6,0,0,0,.07-.31c0-.05,0-.08,0-.12h-.12v.1a1.83,1.83,0,0,1-.08.25.25.25,0,0,0-.12,0Zm.73-.2v.1s0,.08,0,.12a.31.31,0,0,1,0,.1l.13,0v-.36l-.12,0Zm-.3-.48a.29.29,0,0,0,.15.14V26h.11v-.32a.24.24,0,0,0,.17-.21.2.2,0,0,0-.16-.19v-.46h-.12V25h0v.33a.26.26,0,0,0-.15.14h-.38v.12Zm-1.74.92-.15-.06.3-.36.1.12Zm.15-.41-.29.34.13,0,.24-.27Zm-.41.27-.09-.13.25-.3.15.06Zm.16-.41-.23.28.08.09.3-.33ZM21.44,25v-.47l.17,0v.37Zm0-.45v.42l.14,0v-.36Zm-.12.45-.17,0v-.39l.15-.05Zm2.21-.21-.12-.1.17-.2-.15.2.1.07.51-.58v.05Zm.54-.13v-.14l0,.13h.13v-.44a.25.25,0,0,0,.16-.21c0-.2-.36-.25-.42-.06h-.4V24L24,24l0,0h-.37v-.15h.39c0-.19.46-.15.46.07a.23.23,0,0,1-.17.22v.44Zm-1.23-.18H22.7v-.28a.21.21,0,0,1-.16-.13h-.33v-.15h.35a.25.25,0,0,1,.44,0h.35V24H23a.23.23,0,0,1-.14.13v.26Zm-.3-.43a.29.29,0,0,0,.15.14v.28h.12v-.27A.24.24,0,0,0,23,24h.37l0-.12H23a.24.24,0,0,0-.43,0h-.35l0,.13Z"/><path class="cls-6" d="M22.84,26.77v-.46l.15,0v.38Zm0-.45v.42l.14,0v-.36Zm-.12.45-.17,0v-.38l.15-.05Zm.62-.32-.25-.29.08-.13.32.34Zm.26-.14L23.28,26l.14-.08.26.28Zm0-.62h-.4l-.05-.14.48,0Zm0-.15-.47,0,.05.12h.37Zm-1.38.15h-.4l0-.14.48,0Zm0-.15-.46,0,.05.12h.37Zm1.38-.12h-.49l0-.15h.4Zm-.07-.14h-.38l0,.13h.45Zm-1.28.14h-.49l0-.15h.4Zm-.07-.14H21.9l0,.13h.45Zm-.2-.22-.25-.29.07-.14.33.35Zm1.37,0L23.31,25l.3-.37.09.12Zm.15-.42-.28.35.12,0,.25-.28Zm.61.32v-.47l.17,0v.37Zm0-.45,0,.42.13,0v-.36Zm-1.89.42L22,24.56l.14-.07.26.28Zm.87,0-.09-.14.25-.29.15.06Zm.16-.41-.23.28.07.09.29-.33Zm.29-.34h-.39L23.2,24l.49,0Zm0-.15-.46,0,0,.12h.38Zm-1.38.15h-.4l0-.14.48,0Zm0-.15-.46,0,.05.12h.37Zm1.38-.12h-.48l0-.15h.41Zm-.06-.15h-.38l0,.13h.45Zm-1.3.15h-.48l0-.15h.4Zm-.06-.15H21.9l0,.13h.45Z"/><path class="cls-6" d="M22.83,24.77v-.46l.16,0v.38Zm0-.45v.42l.14,0v-.36Zm-.12.45-.17,0v-.38l.16-.05Z"/><path class="cls-8" d="M22.55,25.48a.22.22,0,0,1,.23-.22.22.22,0,1,1-.23.22"/><path class="cls-12" d="M22.83,19.87v-.08a.52.52,0,0,1-.4-.11c-.07-.06-.09-.09-.14-.1a.33.33,0,0,0-.2,0,.35.35,0,0,1,.15.11.38.38,0,0,0,.16.13,1.22,1.22,0,0,0,.27,0l.15,0"/><path d="M22.82,19.89l-.14,0H22.4a.53.53,0,0,1-.17-.14.31.31,0,0,0-.13-.1s.06-.07.15-.07a.24.24,0,0,1,.16.07.74.74,0,0,0,.23.14h.21Zm-.16-.05h.15v0l-.19,0a.49.49,0,0,1-.2-.11c-.08-.07-.11-.09-.13-.09a.35.35,0,0,0-.17,0,.24.24,0,0,1,.13.09.28.28,0,0,0,.16.12h.24Z"/><path class="cls-13" d="M23.45,19.68a.83.83,0,0,0,0,.12.76.76,0,0,0,0,.14s0,0,0,.07a.17.17,0,0,1,0,.08l-.06,0-.05,0s0,.06,0,.08a.25.25,0,0,0,0,.11.23.23,0,0,1,.08.11s0,.11,0,.11l-.07-.07-.1-.05a.26.26,0,0,1,.06.13.4.4,0,0,1,0,.13.54.54,0,0,0-.07-.09.32.32,0,0,0-.08-.07.61.61,0,0,1,0,.15c0,.07,0,.21,0,.21l-.06-.08-.09-.06a.24.24,0,0,1,.05.09.86.86,0,0,0,.15.39.42.42,0,0,0,.46.25c.26-.07.16-.41.11-.58a1.82,1.82,0,0,1-.08-.4c0-.06.05-.24,0-.28a.53.53,0,0,1,0-.27,1.38,1.38,0,0,1,.07-.2c0-.05,0-.07,0-.11a.59.59,0,0,0,0-.11.38.38,0,0,1,.05.11.4.4,0,0,1,0,.13.18.18,0,0,1,.08-.14.79.79,0,0,0,.18-.12.06.06,0,0,0,0,0,.46.46,0,0,1,0,.22l-.15.17.11,0h.07a.84.84,0,0,0-.12.13c-.06.1,0,.11-.09.19a.57.57,0,0,1-.14.13c-.09.07,0,.36,0,.4s.17.4.17.48a.46.46,0,0,1-.13.4.89.89,0,0,1-.29.1.26.26,0,0,0-.11.24.22.22,0,0,0,.09.21s.1,0,.11,0a.09.09,0,0,0,0,.06.06.06,0,0,1,0,.07s-.07.11-.1.16a.8.8,0,0,0-.07.2.3.3,0,0,0,0,.12s.07.08,0,.1-.07,0-.08,0a.56.56,0,0,0-.08,0s0,0,0-.06,0-.06,0-.06,0,0,0,0,0,.07,0,.07l-.06-.05s-.07,0-.08,0a.13.13,0,0,1,.07-.08s.06,0,0,0a0,0,0,0,0-.06,0s-.07,0-.07,0,0-.06,0-.07,0,0,0-.07.07,0,.12,0,.07,0,.08-.05a.12.12,0,0,0,0-.13s-.07,0-.08-.06l0-.08a.48.48,0,0,1,0,.12v.07l-.06-.06a.78.78,0,0,1,0-.12s0,.08,0,.11,0,.07,0,.07-.07-.05-.08-.07a.32.32,0,0,1-.09-.08.41.41,0,0,1,0-.12.29.29,0,0,1,0-.13.41.41,0,0,1,0-.09H23c-.07,0-.11,0-.14,0a.43.43,0,0,0,0,.24c0,.11.05.16,0,.18a.27.27,0,0,1-.07.08h-.07a.19.19,0,0,0-.1,0h-.12l-.09,0s-.07,0-.06.06,0,.06,0,.06l-.08,0s-.07,0-.06,0,0,0,0-.07,0,0,0,0H22.2s-.05,0-.07,0,0,0,0-.09-.06-.1,0-.1.12,0,.13,0a.06.06,0,0,0,0-.07s-.07,0,0-.06,0,0,.06-.05,0-.07.06-.05,0,.06.05.12a.18.18,0,0,0,.18.06c.08,0,.11,0,.11,0s0-.07,0-.09V21.8a.11.11,0,0,0-.05.05l0,.07a.29.29,0,0,1,0-.1v-.07a.56.56,0,0,0,0-.07s0,.06,0,.07,0,.09,0,.09a.11.11,0,0,1,0-.12c0-.07,0-.15,0-.18s.06-.14.17-.14h.23l.17,0-.3-.16a.7.7,0,0,1-.17-.18.9.9,0,0,1-.06-.14l-.08,0a.52.52,0,0,0-.11.08l-.06.09s0-.08,0-.11v-.07a.31.31,0,0,1-.09.15l-.12.1s0-.06,0-.08,0-.08,0-.08a.17.17,0,0,1-.1.07c-.06,0-.15,0-.16.05s0,.09,0,.11a.11.11,0,0,1,0,.05l-.06,0-.06,0s0,0,0-.05.06-.06.05-.08-.05,0-.08,0-.07,0-.06,0a.22.22,0,0,0,0-.08s0,0,0,0,.1,0,.1,0,0,0-.06,0-.08,0-.05-.06,0,0,.05-.06,0-.06.06,0,0,.07.08.09a.5.5,0,0,0,.18,0l.12-.08.13-.1-.08-.06L22,20.52l-.16-.06a.75.75,0,0,1-.15,0l.07,0a.12.12,0,0,1,.07,0h-.1s-.08,0-.11,0h-.07a.36.36,0,0,1,.12,0h.09s-.08,0-.1-.05a.35.35,0,0,1-.05-.08s0-.05-.05-.05l-.1,0a0,0,0,0,1,0-.05c0-.05,0,0,0-.05s-.05-.07,0-.08.11,0,.11,0,0-.06-.07-.07-.08,0-.05-.07l.07-.05s0-.08.06-.06.07.11.09.1,0-.07,0-.09,0-.08,0-.07,0,0,.08,0,.09,0,.09,0a.24.24,0,0,1-.06.09.13.13,0,0,0,0,.12.28.28,0,0,0,.09.13,1,1,0,0,1,.15.07,1.45,1.45,0,0,0,.19.12l.06,0h.32c.05,0,.11-.06.09-.1s-.12-.08-.11-.11,0,0,.11,0,.15,0,.16-.08,0-.14-.07-.16-.15,0-.16-.08,0-.08,0-.1a.17.17,0,0,1,.12,0l.16,0s0-.06,0-.08a.45.45,0,0,1,.13,0,1.86,1.86,0,0,1,.23.14,1,1,0,0,1,.19.19Z"/><path d="M23.54,22.78l-.06-.08-.1,0-.1-.07s0-.08.08-.09l-.1-.05V22.4h.05v.11l.12,0-.12.13h0l.09.05.09-.09.05.14v0l.11,0a1,1,0,0,1,0-.18,1.36,1.36,0,0,1,.07-.22l.05-.08,0-.14v0L23.64,22a.22.22,0,0,1-.09-.21.26.26,0,0,1,.12-.25.69.69,0,0,0,.28-.11.41.41,0,0,0,.13-.36,1.76,1.76,0,0,0-.13-.39.51.51,0,0,1,0-.11s-.06-.33,0-.41a.45.45,0,0,0,.14-.13.85.85,0,0,1,.09-.19,1,1,0,0,1,.11-.13l0,0a.84.84,0,0,0-.12.13.58.58,0,0,1-.05.11l0,.08a.46.46,0,0,1-.1.1c-.13.09-.09.37-.08.41l0,.11a3.47,3.47,0,0,1,.14.38.48.48,0,0,1-.14.41.73.73,0,0,1-.23.09.23.23,0,0,0-.17.24.18.18,0,0,0,.08.18h0l.14.07.05.14-.05.08a.22.22,0,0,0-.05.08.93.93,0,0,0-.07.19.37.37,0,0,0,0,.11s0,.06,0,.1Zm-.13-.37-.1,0h.05c.1,0,.11,0,.12,0a.1.1,0,0,0,0-.1l-.08-.07v.07a.53.53,0,0,1,0-.16l.13.14a.12.12,0,0,1,0,.14.14.14,0,0,1-.1.06m-1.1-.06-.11,0,0-.07v0l-.11,0a.12.12,0,0,1,0-.11l0-.1h.09V22l.16-.14.06.12a.14.14,0,0,0,.16.07c.08,0,.09,0,.09,0v-.09l0-.07v.08c0,.12-.05.13-.12.14a.19.19,0,0,1-.19-.07l0-.09-.08.05h0v.14h-.08l0,.16v0l.11,0v.08l.07.06h0l.14-.07,0,.1Zm.53-.05h-.07l-.1,0-.19,0h.15a.43.43,0,0,1,.15,0c.07,0,.11-.05.11-.07s0-.06,0-.12-.06-.26,0-.3.06,0,.1,0h.16l0,.12a.45.45,0,0,0,0,.11.54.54,0,0,0,.05.11.18.18,0,0,0,.08.09l.06.1h0l-.06-.05a.6.6,0,0,1-.11-.12.48.48,0,0,1-.05-.11s0-.12,0-.15l0-.09-.24,0h0s0,.15,0,.22.05.17,0,.19a.36.36,0,0,1-.08.09Zm-.29-.38s0-.05,0-.1v-.08l0,.08h0l0,0a.16.16,0,0,1-.05-.14.14.14,0,0,0,0-.09l0-.09c0-.05.08-.14.18-.14a.42.42,0,0,1,.16,0,1.06,1.06,0,0,0,.22,0,1.51,1.51,0,0,1-.29-.13.8.8,0,0,1-.18-.19s-.05-.13-.05-.13a.52.52,0,0,0-.17.11l-.05.09s0-.08,0-.11a.5.5,0,0,1-.07.08l-.12.1,0,0v-.14a.19.19,0,0,1-.08,0c-.08,0-.13,0-.14,0v.12h-.07l0-.07c0-.1.06-.11.12-.12a.19.19,0,0,0,.14-.07l0,0,0,.13c0,.06,0,0,.09,0a.25.25,0,0,0,.08-.14.35.35,0,0,1,0,.13.1.1,0,0,1,0-.05.29.29,0,0,1,.1-.09.23.23,0,0,1,.09,0s0,.1.07.14a.91.91,0,0,0,.17.17,3.21,3.21,0,0,0,.3.16s-.14.05-.18.06h-.23a.19.19,0,0,0-.15.12v.19a.13.13,0,0,0,0,.09s0,0,0-.06l0-.08h0l0,.12a.36.36,0,0,0,0,.12h0Zm1.13-.54a.49.49,0,0,1-.37-.25,1.16,1.16,0,0,1-.17-.41.23.23,0,0,0,0-.1s0,0,0,0l.07,0s0,0,.05.06a1.08,1.08,0,0,1,0-.18.48.48,0,0,0,0-.15s.07,0,.11.06a.19.19,0,0,1,.06.07s0-.07,0-.1a.17.17,0,0,0-.06-.12s.09,0,.12,0,0,0,.06,0,0-.05,0-.07a.28.28,0,0,0-.07-.09.27.27,0,0,1-.06-.12V20h0v0l.09.08,0-.2v-.19h0a.75.75,0,0,0,0,.12v.13l0,.16h0L23.4,20v.07a.38.38,0,0,0,0,.1.39.39,0,0,1,.09.11.68.68,0,0,1,0,.12s-.07-.05-.08-.05l-.05,0a.15.15,0,0,1,0,.09.88.88,0,0,1,0,.14s-.06-.05-.1-.09,0,0,0-.05a.53.53,0,0,1,0,.12,2.1,2.1,0,0,1,0,.21s-.05,0-.08-.07l0,0a.06.06,0,0,1,0,0,.94.94,0,0,0,.16.38c.09.13.21.3.44.24a.25.25,0,0,0,.13-.09.77.77,0,0,0,0-.46,1.26,1.26,0,0,1-.09-.41s0-.08,0-.14a.5.5,0,0,0,0-.14.67.67,0,0,1,0-.28.57.57,0,0,1,.06-.15l.05-.15a.59.59,0,0,0,0-.11s.08.08.09.11a.13.13,0,0,0,0,0l.06-.08c.11-.06.16-.09.17-.11h0a.26.26,0,0,1-.12.11c-.16.1-.12.16-.13.16v0a.54.54,0,0,1,0-.1l0-.06s0,0,0,.05a.11.11,0,0,1,0,.08c0,.11-.06.16-.08.23a.62.62,0,0,0,0,.27s0,.07,0,.15a.83.83,0,0,0,0,.13,1.09,1.09,0,0,0,.08.4.62.62,0,0,1,0,.48.19.19,0,0,1-.15.11l-.09,0m-2-.11-.17-.09v-.11h0L21.6,21l-.09-.08.08-.09h0l.08-.05.08.08a.24.24,0,0,0,.17,0l.13-.08a.81.81,0,0,1,.12-.08.24.24,0,0,1-.08-.06L22,20.53l-.15-.05-.16,0,.07-.07h0l-.1,0h.07l.13,0h0l-.15.09s.11,0,.14,0l.16.05.09.09.08.07a.37.37,0,0,1-.13.12l-.13.08a.36.36,0,0,1-.19,0l-.09-.09-.07.09c.07.05.1.07.1.09h0l-.06,0,0,.1h.13l0,.09.08.05Zm0-1,0,0s-.06,0-.07,0l0-.09h-.15a.09.09,0,0,1-.06-.07l0-.12.1,0h0l-.1-.1.17-.14.08.09h0l0-.15.11,0h.1a.17.17,0,0,1-.06.12s0,.08,0,.11a.34.34,0,0,0,.09.12.71.71,0,0,1,.15.07.71.71,0,0,0,.18.11c.06,0,.1,0,.15,0a.73.73,0,0,0,.23,0c.06,0,.07,0,.08-.06h0l-.1-.13s.05,0,.12,0,.13,0,.15-.06,0-.13-.06-.14-.16,0-.18-.1v-.11a.28.28,0,0,1,.13,0h.15l.05-.08a1,1,0,0,1,.14,0,1,1,0,0,1,.24.15.77.77,0,0,1,.19.19s-.11-.09-.21-.17a1.86,1.86,0,0,0-.23-.14l-.11,0-.05.07a.29.29,0,0,1-.12,0c-.11,0-.14,0-.16,0s.07.14.14.15.13.1.12.19-.1.09-.15.09-.12,0-.13,0,.11.08.12.1a.13.13,0,0,1-.1.12.57.57,0,0,1-.19,0,.38.38,0,0,0-.13,0,.58.58,0,0,1-.21-.11l-.14-.07a.38.38,0,0,1-.17-.17.14.14,0,0,1,0-.14.15.15,0,0,0,0-.08l-.13,0c0,.07,0,.15-.07.15h0l-.06-.06-.12,0c.05.08.1.11.1.13l-.13,0,0,.09.13,0,.09.09a.13.13,0,0,0,.12.08s-.05,0-.1,0m2.47-.52s.1-.16.13-.2a.37.37,0,0,0,0-.18s0,.14,0,.2l-.12.13h.1l-.14.05"/><path d="M22.59,19.62l0-.05v0s.08,0,.08,0,0,0,0,0v0"/><path d="M22.92,19.51v0a.2.2,0,0,1,.09,0,.38.38,0,0,1,.08.09s-.05,0-.08,0h0s0,0,0,0v0Z"/><path class="cls-12" d="M21.66,19.61a.15.15,0,0,0,.07,0h.07a.54.54,0,0,0,0-.08.14.14,0,0,0-.11-.12s0,.06,0,.08a.21.21,0,0,1-.06.08"/><path class="cls-12" d="M21.48,19.7a.13.13,0,0,0-.12-.06.18.18,0,0,0-.12.06s.09,0,.11,0,0,.06,0,.06.05,0,.06,0a.14.14,0,0,1,0,0"/><path class="cls-12" d="M21.38,20a.16.16,0,0,0-.09.05.17.17,0,0,0,0,.12s0-.05.08-.05l.09,0a.31.31,0,0,1,0-.07.24.24,0,0,0,0-.07"/><path d="M21.24,20.12a.17.17,0,0,1,0-.13.17.17,0,0,1,.1,0h0l0,.08s0,0,0,0l0-.1v0a.16.16,0,0,0-.09.05s0,0,0,.06a.23.23,0,0,1,.14,0s-.05,0-.07,0l0,0Z"/><polygon points="22.59 19.95 22.62 19.9 22.65 19.94 22.59 19.95"/><polygon points="22.66 19.94 22.7 19.9 22.73 19.94 22.66 19.94"/><polygon points="22.63 19.67 22.69 19.7 22.64 19.72 22.63 19.67"/><polygon points="22.71 19.69 22.77 19.71 22.73 19.75 22.71 19.69"/><path d="M22.52,20.92l0,0,.11-.07a.4.4,0,0,0,.09-.07.59.59,0,0,0,0-.13.17.17,0,0,1,0-.07l0,0a.3.3,0,0,1-.15.07.15.15,0,0,0-.08,0s0-.09,0-.15v0l-.17.1s-.05.06-.07.08l0,0a.36.36,0,0,1,.07-.09l.11-.06h.08v0a.13.13,0,0,1,0-.1l-.07,0-.1,0h0a.15.15,0,0,0-.11,0s0-.06,0-.11a.22.22,0,0,1,.1-.06v0a.16.16,0,0,0-.09.05s0,0,.06,0h0l.1,0h0l.11,0s0,.1,0,.13l0,.1,0,.11,0,0a.69.69,0,0,0,.14-.06l.08-.08s0,.09,0,.12a.36.36,0,0,1,0,.11.09.09,0,0,1,.05,0l.08-.05h0l0,0v0l0,0v0a.45.45,0,0,0,0,.11.28.28,0,0,1,.05.11l0-.08a.15.15,0,0,0,.06-.07s0,.05,0,.1a.28.28,0,0,0-.05.09s-.07-.11-.08-.14a.08.08,0,0,1,0-.05l0,0s-.05,0-.07.06l-.07,0h0s0,.07-.08.1l-.11.07"/><path class="cls-12" d="M21.6,20.79a.14.14,0,0,0-.1,0,.17.17,0,0,0-.1.08.15.15,0,0,1,.08,0,.11.11,0,0,1,.05,0l0,0,0-.05"/><path class="cls-12" d="M21.53,21a.13.13,0,0,0-.1,0,.17.17,0,0,0-.05.1.1.1,0,0,1,.08,0l.07,0a.43.43,0,0,0,0-.05.11.11,0,0,0,0-.07"/><path class="cls-12" d="M21.65,21.27a.15.15,0,0,0,0,.1.21.21,0,0,0,.1.05.2.2,0,0,1,0-.07s0-.06,0-.06a.1.1,0,0,0-.06,0h-.06"/><path d="M23.11,21.77s.06-.12.07-.21-.12-.15-.16-.17l0,0s.17.11.17.2a.49.49,0,0,1-.1.21"/><path class="cls-12" d="M22.25,21.85a.14.14,0,0,0-.1-.05.18.18,0,0,0-.11.05.2.2,0,0,1,.09,0l0,.06.05,0a.14.14,0,0,0,0,0"/><path class="cls-12" d="M22.07,22.08a.14.14,0,0,0-.11,0,.22.22,0,0,0,0,.11s0,0,.08,0a.17.17,0,0,1,.09,0,.56.56,0,0,1,0-.07.2.2,0,0,0,0-.06"/><path class="cls-12" d="M22.24,22.33s0,.05,0,.09a.3.3,0,0,0,.09.07.13.13,0,0,1,0-.08s.05-.06.05-.06Z"/><path class="cls-12" d="M23.27,22.43a.19.19,0,0,0-.11,0s-.06.12-.06.12a.22.22,0,0,1,.1-.05l.08,0a.11.11,0,0,0,0-.06.1.1,0,0,0,0,0"/><path d="M23.06,22.6l0-.06s0-.1.08-.12h.13l0,0v0h-.05a.24.24,0,0,0-.09.08l.06,0s.07,0,.08,0v0c-.11,0-.15,0-.16,0Z"/><path class="cls-12" d="M23.3,22.68s-.05.05,0,.09a.44.44,0,0,0,.05.09s0-.06,0-.08a.15.15,0,0,1,.09,0l-.06-.05-.07,0"/><path class="cls-12" d="M23.56,22.75a.1.1,0,0,0,0,.11.18.18,0,0,0,.1,0,.1.1,0,0,1,0-.16s-.07,0-.08,0l-.06,0"/><path class="cls-14" d="M20.92,27.35a.33.33,0,0,1,.26.33.39.39,0,0,1-.44.35.41.41,0,0,1-.45-.35.32.32,0,0,1,.26-.33s0,0,0,0a.23.23,0,0,1-.05,0,.31.31,0,0,1,.1,0,.17.17,0,0,1,.07,0,.11.11,0,0,1,0-.06.18.18,0,0,1,.06,0s0,0,0,.06a.15.15,0,0,1,0,.05.19.19,0,0,1,.06,0l.07,0a.39.39,0,0,1,0,.06.18.18,0,0,0,0,.06"/><path d="M20.74,28.05a.42.42,0,0,1-.47-.37.34.34,0,0,1,.28-.35v.05a.27.27,0,0,0-.23.3.38.38,0,0,0,.42.33c.24,0,.42-.14.42-.33a.32.32,0,0,0-.25-.31h0l0-.08,0,0h-.1l0-.09,0,0-.11.07-.1,0,0,0-.08-.09.11,0v0l.17-.06.08.11.11-.08v.09a.42.42,0,0,1,.24.38c0,.21-.19.37-.46.37"/><path class="cls-8" d="M20.71,28.24a2.2,2.2,0,0,0-.48-.25,1.9,1.9,0,0,0-.47,0l.15.12a1.47,1.47,0,0,0,.28.16,1,1,0,0,0,.52,0"/><path d="M20.41,28.31a.78.78,0,0,1-.22,0,1.22,1.22,0,0,1-.3-.16.89.89,0,0,0-.14-.12l.11,0H20l.22,0a2.48,2.48,0,0,1,.48.25s-.13.09-.31.09m-.6-.31.12.08a.72.72,0,0,0,.27.16,1.18,1.18,0,0,0,.49,0c-.06,0-.34-.18-.47-.21L20,28Z"/><path class="cls-8" d="M20.8,28.26a.9.9,0,0,1,.43-.25,1.27,1.27,0,0,1,.54,0l-.14.07a.54.54,0,0,1-.33.13c-.18,0-.39,0-.41,0H20.8"/><path d="M21.27,28.28h-.45l.08,0H21l.27,0h0a.71.71,0,0,0,.31-.12.53.53,0,0,1,.14-.08s-.06.07-.1.1a.6.6,0,0,1-.35.13Zm-.45,0,0,0a.86.86,0,0,1,.44-.26,1.17,1.17,0,0,1,.5,0h0c-.11,0-.21,0-.34,0h-.16a.89.89,0,0,0-.42.24"/><path class="cls-5" d="M20.74,28a.41.41,0,0,1,0-.62.43.43,0,0,1,0,.62"/><path d="M20.74,28h0a.44.44,0,0,1-.13-.33.42.42,0,0,1,.13-.32.37.37,0,0,1,.17.32.45.45,0,0,1-.14.33Zm0-.63a.55.55,0,0,0-.09.29.36.36,0,0,0,.11.28.41.41,0,0,0,.11-.28.37.37,0,0,0-.13-.29"/><path class="cls-8" d="M20.66,28.44a.79.79,0,0,0,.05-.23,1.13,1.13,0,0,0,0-.19h.07a.78.78,0,0,1,0,.19c0,.08,0,.19,0,.19l-.06,0-.06,0"/><path d="M20.68,28.45h0a1.2,1.2,0,0,0,.05-.23c0-.08,0-.17,0-.17l.08,0s.06.11.06.2,0,.19,0,.19l-.13,0v0m.06-.42s0,.09,0,.18a1.12,1.12,0,0,1,0,.21l0,0a.28.28,0,0,0,.06-.19.76.76,0,0,0,0-.18Z"/><path class="cls-7" d="M24.82,16.51a.09.09,0,0,1,.18,0,.09.09,0,0,1-.18,0"/><path class="cls-7" d="M24.94,16.29a.09.09,0,0,1,.1-.08.08.08,0,1,1,0,.16.09.09,0,0,1-.1-.08"/><path class="cls-7" d="M25,16a.09.09,0,0,1,.18,0A.09.09,0,1,1,25,16"/><path class="cls-7" d="M25,15.76a.09.09,0,1,1,.09.09.09.09,0,0,1-.09-.09"/><path class="cls-7" d="M25,15.5a.1.1,0,0,1,.1-.1.1.1,0,0,1,.08.1.09.09,0,0,1-.08.08.09.09,0,0,1-.1-.08"/><path class="cls-7" d="M24.83,15.25a.09.09,0,1,1,.09.09.09.09,0,0,1-.09-.09"/><path class="cls-7" d="M24.65,15.05a.08.08,0,0,1,.08-.09.1.1,0,0,1,.1.09.09.09,0,0,1-.1.08.07.07,0,0,1-.08-.08"/><path class="cls-7" d="M24.43,14.88a.09.09,0,1,1,.09.09.09.09,0,0,1-.09-.09"/><path class="cls-7" d="M24.18,14.74a.08.08,0,0,1,.08-.08.09.09,0,0,1,.09.08.09.09,0,0,1-.09.09.08.08,0,0,1-.08-.09"/><path class="cls-7" d="M23.91,14.65a.08.08,0,0,1,.08-.09.09.09,0,0,1,.09.09.08.08,0,0,1-.09.08.07.07,0,0,1-.08-.08"/><path class="cls-7" d="M23.6,14.6a.09.09,0,0,1,.1-.09.09.09,0,0,1,.08.09.09.09,0,0,1-.08.08.09.09,0,0,1-.1-.08"/><path class="cls-7" d="M23.32,14.58a.09.09,0,1,1,.18,0,.09.09,0,0,1-.18,0"/><path class="cls-7" d="M23,14.59a.09.09,0,0,1,.18,0,.09.09,0,0,1-.18,0"/><path class="cls-7" d="M22.76,14.59a.08.08,0,0,1,.09-.09.09.09,0,0,1,.09.09.1.1,0,0,1-.09.09.09.09,0,0,1-.09-.09"/><path class="cls-7" d="M22.9,14.83a.09.09,0,1,1,.09.09.09.09,0,0,1-.09-.09"/><path class="cls-7" d="M23,15.09A.09.09,0,0,1,23,15a.09.09,0,1,1,0,.17.09.09,0,0,1-.09-.09"/><path class="cls-7" d="M23,15.36a.09.09,0,1,1,.18,0,.09.09,0,0,1-.18,0"/><path class="cls-7" d="M22.88,15.6a.09.09,0,0,1,.18,0,.09.09,0,0,1-.18,0"/><path class="cls-7" d="M22.73,15.82a.09.09,0,0,1,.18,0,.09.09,0,0,1-.18,0"/><path class="cls-7" d="M22.55,14.42a.09.09,0,0,1,.18,0,.09.09,0,0,1-.18,0"/><path class="cls-7" d="M22.3,14.29a.09.09,0,0,1,.18,0,.09.09,0,0,1-.18,0"/><path class="cls-7" d="M22,14.2a.08.08,0,0,1,.09-.08.07.07,0,0,1,.08.08.08.08,0,0,1-.08.09A.09.09,0,0,1,22,14.2"/><path class="cls-7" d="M21.74,14.15a.09.09,0,0,1,.1-.08.09.09,0,0,1,.08.08.09.09,0,0,1-.08.09.09.09,0,0,1-.1-.09"/><path class="cls-7" d="M21.46,14.16a.11.11,0,0,1,.1-.09.09.09,0,0,1,0,.18.11.11,0,0,1-.1-.09"/><path class="cls-7" d="M21.17,14.21a.09.09,0,0,1,.09-.09.09.09,0,1,1,0,.17.09.09,0,0,1-.09-.08"/><path class="cls-7" d="M20.9,14.3c0-.05,0-.08.1-.08a.08.08,0,1,1,0,.16c-.06,0-.1,0-.1-.08"/><path class="cls-7" d="M16.36,16.51a.1.1,0,0,1,.1-.09.09.09,0,0,1,.08.09.08.08,0,0,1-.08.08.09.09,0,0,1-.1-.08"/><path class="cls-7" d="M16.24,16.29c0-.05,0-.08.09-.08a.08.08,0,1,1,0,.16c-.06,0-.09,0-.09-.08"/><path class="cls-7" d="M16.15,16a.1.1,0,0,1,.09-.08.09.09,0,1,1,0,.17.1.1,0,0,1-.09-.09"/><path class="cls-7" d="M16.15,15.76a.09.09,0,0,1,.08-.09.09.09,0,0,1,0,.18.09.09,0,0,1-.08-.09"/><path class="cls-7" d="M16.21,15.5a.09.09,0,1,1,.18,0,.09.09,0,0,1-.18,0"/><path class="cls-7" d="M16.35,15.25a.09.09,0,1,1,.09.09.09.09,0,0,1-.09-.09"/><path class="cls-7" d="M16.53,15.05a.1.1,0,0,1,.1-.09.09.09,0,0,1,.09.09.08.08,0,0,1-.09.08.09.09,0,0,1-.1-.08"/><path class="cls-7" d="M16.75,14.88a.1.1,0,0,1,.1-.09.09.09,0,1,1,0,.18.1.1,0,0,1-.1-.09"/><path class="cls-7" d="M17,14.74a.09.09,0,0,1,.1-.08.09.09,0,0,1,.08.08.09.09,0,0,1-.08.09.09.09,0,0,1-.1-.09"/><path class="cls-7" d="M17.28,14.65a.09.09,0,1,1,.18,0,.09.09,0,0,1-.18,0"/><path class="cls-7" d="M17.58,14.6a.09.09,0,0,1,.18,0,.09.09,0,0,1-.18,0"/><path class="cls-7" d="M17.87,14.58a.08.08,0,0,1,.09-.09.09.09,0,0,1,.09.09.08.08,0,0,1-.09.08c-.06,0-.09,0-.09-.08"/><path class="cls-7" d="M18.14,14.59a.1.1,0,0,1,.1-.09.09.09,0,0,1,.09.09.1.1,0,0,1-.09.09.11.11,0,0,1-.1-.09"/><path class="cls-7" d="M18.42,14.59a.09.09,0,0,1,.1-.09.1.1,0,0,1,.09.09.11.11,0,0,1-.09.09.1.1,0,0,1-.1-.09"/><path class="cls-7" d="M18.29,14.83a.08.08,0,0,1,.08-.09.09.09,0,0,1,0,.18.08.08,0,0,1-.08-.09"/><path class="cls-7" d="M18.23,15.09a.09.09,0,0,1,.08-.08.09.09,0,1,1,0,.17.09.09,0,0,1-.08-.09"/><path class="cls-7" d="M18.22,15.36a.09.09,0,0,1,.09-.09.09.09,0,0,1,.08.09.09.09,0,0,1-.08.08.09.09,0,0,1-.09-.08"/><path class="cls-7" d="M18.3,15.6a.09.09,0,0,1,.18,0,.09.09,0,0,1-.18,0"/><path class="cls-7" d="M18.45,15.82a.1.1,0,0,1,.1-.09.09.09,0,0,1,.08.09.1.1,0,0,1-.08.09.11.11,0,0,1-.1-.09"/><path class="cls-7" d="M18.63,14.42a.1.1,0,0,1,.1-.08.09.09,0,0,1,.09.08.09.09,0,0,1-.09.09.1.1,0,0,1-.1-.09"/><path class="cls-7" d="M18.89,14.29A.09.09,0,0,1,19,14.2a.08.08,0,0,1,.08.09.08.08,0,0,1-.08.08.09.09,0,0,1-.09-.08"/><path class="cls-7" d="M19.15,14.2a.09.09,0,0,1,.1-.08.08.08,0,0,1,.09.08.09.09,0,0,1-.09.09.1.1,0,0,1-.1-.09"/><path class="cls-7" d="M19.45,14.15a.08.08,0,0,1,.08-.08.09.09,0,1,1,0,.17.08.08,0,0,1-.08-.09"/><path class="cls-7" d="M19.72,14.16a.09.09,0,1,1,.09.09.1.1,0,0,1-.09-.09"/><path class="cls-7" d="M20,14.21a.09.09,0,0,1,.18,0,.09.09,0,0,1-.18,0"/><path class="cls-7" d="M20.27,14.3a.09.09,0,0,1,.1-.08.08.08,0,1,1,0,.16.09.09,0,0,1-.1-.08"/><path class="cls-6" d="M18,19.82h-.08v-.08h-.13V20h.13v.21h-.28v.6h.15v1.2h-.3v.62h2.31v-.62h-.31v-1.2h.16v-.6h-.29V20h.13v-.3h-.13v.08h-.07v-.08h-.13v.08h-.1v-.08H19V20h.13v.21H18.8v-.66H19v-.3H18.8v.08h-.07v-.08h-.14v.08h-.07v-.08h-.15v.3h.15v.66h-.28V20h.13v-.3h-.13v.08h-.08v-.08H18Zm-.51,2.85h0Zm0-.15h0Zm0-.15h0Zm0-.16h0Zm0-.16h0Zm.3-.13h0Zm0-.15h0Zm0-.17h0Zm0-.15h0Zm0-.15h0Zm0-.15h0Zm0-.15h0Zm-.15-.15h0Zm0-.15h0Zm0-.15h0Zm0-.15h0Zm.28-.15h0Zm.58-.15h0Zm0-.15h0Zm0-.15h0Zm0-.15h0Zm-.15-.19h0Zm-.43.64h0Zm-.13-.19h0Zm0,2.76v0Zm0-.3v0Zm-.15,0v0Zm.28.15v0Zm.15.15v0Zm0-.3v0Zm0-.32v0Zm0-.28v0Zm-.15.44v0Zm-.28,0v0Zm.58-.16v0Zm.13,0v0Zm-.43-.28v0Zm.3,0v0Zm.28,0v0Zm-.15,0v0Zm.15-.32v0Zm0-.3v0ZM18.37,21v0Zm.15-.15v0Zm-.28,0v0Zm-.3,0v0Zm-.13-.15v0Zm.28,0v0Zm.28,0v0Zm.15-.15v0Zm-.28,0v0Zm-.3,0v0Zm-.13-.15v0Zm.56,0v0Zm-.28-.3v0Zm1.29,0h0Zm.13-.19h0Zm0,2.76v0Zm0-.3v0Zm.16,0v0Zm-.29.15v0Zm-.15.15v0Zm0-.3v0Zm0-.32v0Zm0-.28v0Zm.15.44v0Zm.29,0v0Zm-.59-.16v0Zm-.13,0v0Zm.43-.28v0Zm-.3,0v0Zm-.28,0v0Zm.15,0v0Zm-.15-.32v0Zm0-.3v0ZM19,21v0Zm-.15-.15v0Zm.28,0v0Zm.3,0v0Zm.13-.15v0Zm-.28,0v0Zm-.28,0v0Zm-.15-.15v0Zm.28,0v0Zm.3,0v0Zm.13-.15v0Zm-.56,0v0Zm.28-.3v0Zm-.58,1.67v0Zm0-.62v0Zm0,.3v0Zm0-.6v0Zm0-.3v0Zm0-.45v0Zm0-.3v0Zm-.71.24h0Zm.58-.45h0Zm.56.45h0Z"/><path d="M17.51,22.69l0-.64.32,0,0-1.17h-.13l0-.62.3,0,0-.19-.11,0,0-.32.17,0v.1h0v-.09l-.11,0v.13h.54v-.15l-.16,0,0-.06h.13l0,.32-.15,0,0,.17h.26l0-.64-.13,0,0-.32.19,0,0,.1-.13-.06v.13h.56v-.15l-.17,0,0-.05H19l0,.32-.18,0,0,.62h.26l0-.19-.11,0,0-.32.17,0v.1h0l-.05,0v-.09l-.11,0v.17l.54,0v-.15l-.16,0,0-.06h.13l0,.32-.15,0,0,.19.27,0v.62l-.17,0,0,1.16h0v0l.29,0v.64Zm2,0h.29V22.5l-.13,0v0h-1.6l0,.13h1.11v-.13l0,.13h.25v-.13Zm.15-.15h.13v-.15h-.27v0H17.92l0,.12h1.41v-.13l0,.13h.28l0-.13h0Zm-.15-.15h.27V22.2h-.4l-1.32,0,0,.12h1.11v-.14l0,.14h.25v-.14Zm-.13-.15h.25v-.14h-.14v0H18.26v.14h.84l0-.15h0v.15h.26v-.15ZM19.25,22h.26V21.9l-.11,0v0l-.3,0h-.75l0,.11h.55v-.11L19,22h.25v-.11Zm.15-.13h.11v-.15h-.26v0h-.71v.13h.27l0-.13h0v.13h.27l0-.13h0v.13h.3l0-.13h0Zm-.15-.15h.26v-.17l-.68,0h-.19l0,.15h.26V21.6l0,.15h.25V21.6Zm-.43-.17h.68v-.15l-1,0v.13h.27l0-.13h0Zm-1,0h.72l0-.13-.68,0Zm.85-.15h.83v-.15l-.68,0h-.19Zm-.85,0h.81V21.3l-.81,0Zm1-.15h.68v-.15l-.52,0h-.44v.13h.27l0-.13h0Zm-1,0h.72l0-.13-.69,0ZM19,21.13h.52V21l-.1,0v0l-.3,0h-.47l0,.13H19l0-.13H19Zm-1.17,0h.57l0-.12h-.54ZM19.4,21h.1v-.13h0l-.28,0v0l-.27,0h-.44V21h.27l0-.13h0V21h.27l0-.13h0V21h.3l0-.13h0Zm.13-.15h.14v-.15l-.26,0v0l-.3,0h-.47l0,.13H19l0-.13H19v.13h.27l0-.13h0v.13h.28l0-.13h0Zm-.13-.15h.26v-.15l-.12,0v0l-.55,0h-.44v.13h.27l0-.13h0v.13h.27l0-.13h0v.13h.3l0-.13h0Zm.13-.15h.12v-.15l-1,0,0,.13H19l0-.13H19v.13h.55l0-.13h0Zm-1.7,0h.55l0-.13h-.52Zm-.17-.15h2v-.13l-.27,0v0l-.13,0v0H19.1l-.3,0v0l-.56,0h-.3v0l-.28,0Zm1.42-.32v.06l.13,0h0l.15,0v0l.15,0v-.09H19L19,20l.1,0h.3Zm-1.14,0h.28v0l.15,0v-.13l-.54,0V20l.11,0h.3l-.3,0Zm.58-.45h.26v0l.17,0v-.13l-.56,0v.11l.41,0-.28,0Z"/><path class="cls-6" d="M19.05,22.67v-.4c0-.07,0-.3-.4-.3s-.37.23-.37.3v.4Z"/><path d="M19.06,22.69h-.78l0-.42c0-.05,0-.32.39-.32s.41.27.41.32Zm-.41-.7c-.34,0-.35.24-.35.28v.4l.73,0v-.38c0-.06,0-.28-.38-.28"/><path class="cls-6" d="M18.41,22.29l-.19,0c0-.07,0-.19.07-.22l.17.13a.22.22,0,0,0-.05.11"/><path d="M18.43,22.31h-.21c0-.11,0-.23.07-.27l.19.13a.55.55,0,0,0-.05.13Z"/><path class="cls-6" d="M18.92,22.29l.18,0c0-.07,0-.19-.07-.22l-.17.13a.24.24,0,0,1,.06.11"/><path d="M18.9,22.31v0a.21.21,0,0,0-.06-.1L19,22c.08,0,.1.16.1.24Z"/><path class="cls-6" d="M18.73,22.11l.09-.17a.43.43,0,0,0-.17,0l-.15,0,.09.17Z"/><path d="M18.74,22.12h-.15l-.1-.17a.29.29,0,0,1,.34,0Z"/><path class="cls-6" d="M18.37,21.64v-.41a.19.19,0,0,0-.2-.21.2.2,0,0,0-.21.21v.41Z"/><path d="M18.39,21.66H18l0-.43a.23.23,0,0,1,.45,0ZM18.17,21a.18.18,0,0,0-.19.19v.41l.37,0v-.39a.17.17,0,0,0-.18-.19"/><path class="cls-6" d="M19,21.64v-.41a.19.19,0,0,1,.2-.21.19.19,0,0,1,.21.21v.41Z"/><path d="M19.39,21.66H19l0-.43c0-.27.46-.27.46,0ZM19.16,21a.17.17,0,0,0-.18.19v.41l.37,0v-.39a.18.18,0,0,0-.19-.19"/><polygon class="cls-6" points="19.37 20.63 19.41 20.25 19.05 20.25 19.06 20.63 19.37 20.63"/><path d="M19.38,20.65h-.32l0-.4.38,0Zm0-.4-.34,0,0,.36.27,0Z"/><polygon class="cls-6" points="18.51 20.63 18.48 20.25 18.85 20.25 18.81 20.63 18.51 20.63"/><path d="M18.83,20.65h-.32l-.05-.39.39,0Zm0-.4-.35,0,.06.36.25,0Z"/><polygon class="cls-6" points="18.25 20.63 18.27 20.25 17.91 20.25 17.95 20.63 18.25 20.63"/><path d="M18.27,20.64H18l-.06-.39.38,0Zm0-.39-.34,0,.05.35h.27Z"/><path class="cls-15" d="M18.92,22.67v-.34c0-.06,0-.22-.27-.22a.22.22,0,0,0-.24.22v.34Z"/><path class="cls-15" d="M18.34,21.6v-.35a.17.17,0,0,0-.17-.19.17.17,0,0,0-.17.19v.35Z"/><path class="cls-15" d="M19,21.6v-.35a.17.17,0,0,1,.17-.19.17.17,0,0,1,.17.19v.35Z"/><path class="cls-5" d="M19.37,23.33a1.36,1.36,0,1,1,1.35,1.52,1.44,1.44,0,0,1-1.35-1.52"/><path d="M20.72,24.87a1.55,1.55,0,1,1,1.37-1.54,1.46,1.46,0,0,1-1.37,1.54m0-3A1.5,1.5,0,1,0,22,23.33a1.41,1.41,0,0,0-1.32-1.49"/></g><g class="cls-16"><path class="cls-9" d="M19.77,23.33a1,1,0,1,1,.94,1.11,1,1,0,0,1-.94-1.11"/></g><g class="cls-4"><path d="M20.72,24.46a1.15,1.15,0,1,1,1-1.13,1.07,1.07,0,0,1-1,1.13m0-2.22a1.1,1.1,0,0,0,0,2.17,1.1,1.1,0,0,0,0-2.17"/><path class="cls-6" d="M20.27,22.56a.43.43,0,0,0-.11.24.53.53,0,0,0,.05.21.15.15,0,0,0-.12-.08.13.13,0,0,0-.13.12.11.11,0,0,0,0,.06l0,.09a.09.09,0,0,1,.09-.05.07.07,0,0,1,.08.08v0h-.1v.09h.09l-.06.13.09,0,.06.07.07-.07.09,0-.07-.13h.09v-.09h-.1v0a.08.08,0,0,1,.09-.08.06.06,0,0,1,.07.05l0-.09s0,0,0-.06a.13.13,0,0,0-.13-.12.13.13,0,0,0-.11.08.53.53,0,0,0,.05-.21.42.42,0,0,0-.12-.24"/><path d="M20.27,23.53h0l-.07-.07-.07,0,.05-.15-.08,0s0-.09,0-.1h.11l-.09,0,.09.06-.06.16.08-.06.07.07.05-.06.11,0-.08-.11.1,0-.1-.06c0-.15.14-.15.18-.07l0-.08c0-.2-.15-.19-.19-.11s0-.11,0-.2a.4.4,0,0,0-.11-.22.52.52,0,0,0-.09.22.54.54,0,0,0,0,.19c-.1,0-.24,0-.24.06l.07.14c0-.08.17-.05.17,0h0a.09.09,0,0,0-.08-.08l-.09,0h0L20,23.12c0-.2.12-.23.2-.18a.42.42,0,0,1,0-.14.44.44,0,0,1,.12-.25.38.38,0,0,1,.14.25.33.33,0,0,1,0,.15.14.14,0,0,1,.22.1l-.06.15-.09,0a.07.07,0,0,0-.08.07h.09s0,.09,0,.1h-.1l.08.12-.11,0,0,.07a0,0,0,0,0,0,0"/><rect class="cls-6" x="20.09" y="23.25" width="0.36" height="0.09"/><polygon points="20.46 23.35 20.07 23.35 20.07 23.25 20.46 23.23 20.46 23.35"/><path class="cls-6" d="M21.15,22.56a.43.43,0,0,0-.11.24.53.53,0,0,0,.05.21.15.15,0,0,0-.13-.08.13.13,0,0,0-.12.12s0,.05,0,.06l0,.09s.05-.05.09-.05a.08.08,0,0,1,.08.08v0H21v.09h.09l-.07.13.09,0,.07.07.07-.07.09,0-.07-.13h.09v-.09h-.1v0c0-.05,0-.08.09-.08a.08.08,0,0,1,.08.05l0-.09a.07.07,0,0,0,0-.06.13.13,0,0,0-.13-.12.12.12,0,0,0-.11.08.64.64,0,0,0,0-.21.43.43,0,0,0-.11-.24"/><path d="M21.15,23.53h0a0,0,0,0,1,0,0l-.07-.07-.07,0,.05-.15-.08,0s0-.09,0-.1h.1l-.09,0,.09.06,0,.16.07-.06.06.07.07-.06.1,0-.08-.11.1,0-.1-.06c0-.15.14-.15.18-.07v-.08c0-.2-.14-.19-.19-.11s0-.11,0-.2a.34.34,0,0,0-.11-.22.52.52,0,0,0-.09.22.54.54,0,0,0,0,.19c-.11,0-.23,0-.23.06l.05.14c0-.08.18-.06.18,0h0s0-.08-.08-.08l-.1,0h0l0-.08c0-.2.12-.23.21-.18a.2.2,0,0,1,0-.14.44.44,0,0,1,.12-.25.38.38,0,0,1,.14.25.33.33,0,0,1,0,.15.14.14,0,0,1,.22.1l-.06.15-.09,0a.08.08,0,0,0-.08.07h.09s0,.09,0,.1h-.11l.08.12-.11,0-.05.07h0"/><rect class="cls-6" x="20.97" y="23.25" width="0.36" height="0.09"/><polygon points="21.35 23.35 20.96 23.35 20.96 23.25 21.35 23.23 21.35 23.35"/><path class="cls-6" d="M20.71,23.32a.43.43,0,0,0-.11.24.53.53,0,0,0,0,.21.12.12,0,0,0-.12-.08.12.12,0,0,0-.13.12s0,0,0,.06l0,.08a.1.1,0,0,1,.09,0,.08.08,0,0,1,.09.08,0,0,0,0,1,0,0h-.1v.09h.09l-.07.13.1,0,.06.08.07-.08.08,0-.06-.13h.09V24h-.1v0a.08.08,0,0,1,.08-.08A.1.1,0,0,1,21,24l0-.08a.21.21,0,0,0,0-.06.12.12,0,0,0-.13-.12.13.13,0,0,0-.12.08.53.53,0,0,0,.05-.21.43.43,0,0,0-.11-.24"/><path d="M20.71,24.29h0l-.07-.08-.07,0,.05-.15-.08,0V24h.11l-.1,0,0,.07.07,0-.06.15.08-.05.07.07.06-.07.1,0-.08-.11.1,0V24l-.09,0a.1.1,0,0,1,.18-.09l0-.08c0-.19-.15-.18-.2-.1s0-.12,0-.2a.49.49,0,0,0-.11-.23s-.09.13-.09.23a.32.32,0,0,0,.05.18c-.11,0-.24,0-.24.07l.06.13c0-.08.17-.05.17,0h0a.08.08,0,0,0-.08-.07l-.1,0h0l0-.08c0-.2.11-.24.19-.18a.46.46,0,0,1,0-.14.44.44,0,0,1,.11-.25.34.34,0,0,1,.14.25.46.46,0,0,1,0,.14c.06-.06.21,0,.21.11L21,24l-.1,0a.08.08,0,0,0-.07.07h.09v.11h-.1l.08.11-.11,0-.05.08Z"/><rect class="cls-6" x="20.53" y="24.01" width="0.36" height="0.09"/><polygon points="20.9 24.11 20.53 24.11 20.52 24.01 20.89 23.99 20.9 24.11"/><path class="cls-6" d="M23.4,19.33h0l0,0a.06.06,0,0,1-.07,0,.08.08,0,0,1,0,0s0,0,0,0,0,0,0-.07h0v0h0a0,0,0,0,1-.06,0s0,0,0,0h0c-.05,0-.07-.09-.07-.11h0a.8.8,0,0,1,0,.11.39.39,0,0,1,0,.1.93.93,0,0,1,.25.14.75.75,0,0,1,.2.2.25.25,0,0,1,.09,0,.34.34,0,0,1,.11,0l0,0s-.13,0-.13,0a0,0,0,0,1,0,0h0s0,0,0-.06h0v0h0a0,0,0,0,1-.07,0s0,0,0,0,0,0,0,0a.06.06,0,0,1,0-.07l0,0v0Z"/><path d="M23.45,19.71h0a.57.57,0,0,0-.19-.2.77.77,0,0,0-.24-.14s0-.06,0-.11a.58.58,0,0,0,0-.1h0a0,0,0,0,0,0,0s0,0,0,0,0,.07.06.07h.09v0l-.07,0a.11.11,0,0,1-.08-.08v.08a.66.66,0,0,1,0,.1.51.51,0,0,1,.25.12.69.69,0,0,1,.19.2l.08,0,.09,0a.13.13,0,0,1-.08,0v-.05l.1.05v0h0s-.06,0-.1,0a.25.25,0,0,0-.09,0Zm.09-.16v0l-.09,0h0l-.08-.08,0-.08-.08.05-.09-.07h0l.08.05.09,0,0,.09.06.06h.11Z"/><path d="M23.22,19.38s0,0,0,0h0a0,0,0,0,1,0,0v0"/><path d="M23.29,19.46l0,0s0,0,0,0,0,0,0,0l0,0,0,0v0h-.05Z"/><path d="M23.15,19.35h0s0,0,0,0h.06a0,0,0,0,1,0,0Z"/><path d="M23.06,19.3a0,0,0,0,1,0,0v0s0,0,0,0h0"/><path d="M23.39,19.51a0,0,0,0,0,0,0h0v0h0"/><path d="M23.43,19.57l0,0h0v0h0v0h0Z"/><path d="M23.51,19.63h0a0,0,0,0,0,0,0s0,0,0,0"/><polygon class="cls-6" points="23.28 19.13 23.24 19.14 23.23 19.21 23.23 19.22 23.24 19.22 23.3 19.18 23.28 19.13"/><polygon class="cls-6" points="23.15 19.17 23.15 19.22 23.23 19.23 23.24 19.22 23.24 19.21 23.19 19.15 23.15 19.17"/><polygon class="cls-6" points="23.31 19.26 23.27 19.29 23.22 19.23 23.22 19.21 23.24 19.21 23.31 19.22 23.31 19.26"/><path class="cls-6" d="M23.21,19.21s0,0,0,0a0,0,0,0,1,0,0h0s0,0,0,0"/><path class="cls-6" d="M23,19.13l0-.05,0,0a.06.06,0,0,1,.07,0s0,.07,0,.07h0"/><polygon class="cls-6" points="23.11 19.16 23.08 19.19 23.02 19.14 23.03 19.13 23.03 19.12 23.11 19.12 23.11 19.16"/><path class="cls-6" d="M23,19.13l0,0s0,0,0,0l0,0s0,0,0,0"/><polygon class="cls-6" points="23.46 19.25 23.42 19.24 23.4 19.32 23.4 19.33 23.42 19.33 23.48 19.3 23.46 19.25"/><polygon class="cls-6" points="23.33 19.27 23.32 19.32 23.4 19.34 23.41 19.33 23.41 19.32 23.38 19.26 23.33 19.27"/><polygon class="cls-6" points="23.47 19.38 23.43 19.4 23.4 19.33 23.4 19.32 23.41 19.32 23.48 19.34 23.47 19.38"/><path class="cls-6" d="M23.39,19.32s0,0,0,0,0,0,0,0,0,0,0,0a0,0,0,0,1,0,0"/><polygon class="cls-6" points="23.64 19.4 23.64 19.45 23.57 19.48 23.56 19.47 23.55 19.46 23.59 19.39 23.64 19.4"/><polygon class="cls-6" points="23.62 19.54 23.58 19.55 23.54 19.48 23.55 19.47 23.56 19.47 23.64 19.49 23.62 19.54"/><polygon class="cls-6" points="23.49 19.41 23.48 19.45 23.55 19.48 23.56 19.48 23.56 19.47 23.54 19.4 23.49 19.41"/><path class="cls-6" d="M23.57,19.49a0,0,0,0,0,0,0s0,0,0,0a0,0,0,0,0,0,0s0,0,0,0"/><path class="cls-6" d="M23.68,19.64h.07s.05,0,.05,0a.11.11,0,0,0,0-.07s-.07,0-.07,0l0,0"/><polygon class="cls-6" points="23.64 19.56 23.62 19.6 23.68 19.64 23.69 19.64 23.7 19.63 23.69 19.56 23.64 19.56"/><path class="cls-6" d="M23.7,19.65s0,0,0,0,0,0,0,0a0,0,0,0,0,0,0h0"/></g></g></g></svg>